<?xml version="1.0" standalone="no"?>
<!DOCTYPE svg PUBLIC "-//W3C//DTD SVG 1.1//EN" "http://www.w3.org/Graphics/SVG/1.1/DTD/svg11.dtd">
<svg xmlns="http://www.w3.org/2000/svg" viewBox="0 0 500 500" width="500" height="500"><g id="freepik--background-complete--inject-471"><rect x="416.78" y="398.49" width="33.12" height="0.25" style="fill:#ebebeb"/><rect x="322.53" y="401.21" width="8.69" height="0.25" style="fill:#ebebeb"/><rect x="396.59" y="389.21" width="19.19" height="0.25" style="fill:#ebebeb"/><rect x="52.46" y="390.89" width="43.19" height="0.25" style="fill:#ebebeb"/><rect x="104.56" y="390.89" width="6.33" height="0.25" style="fill:#ebebeb"/><rect x="131.47" y="395.11" width="93.68" height="0.25" style="fill:#ebebeb"/><path d="M238.4,337.8H45.3a5.71,5.71,0,0,1-5.71-5.71V60.66A5.71,5.71,0,0,1,45.3,55H238.4a5.71,5.71,0,0,1,5.71,5.71V332.09A5.71,5.71,0,0,1,238.4,337.8ZM45.3,55.2a5.47,5.47,0,0,0-5.46,5.46V332.09a5.47,5.47,0,0,0,5.46,5.46H238.4a5.47,5.47,0,0,0,5.46-5.46V60.66a5.47,5.47,0,0,0-5.46-5.46Z" style="fill:#ebebeb"/><path d="M454.7,337.8H261.6a5.71,5.71,0,0,1-5.71-5.71V60.66A5.71,5.71,0,0,1,261.6,55H454.7a5.71,5.71,0,0,1,5.71,5.71V332.09A5.71,5.71,0,0,1,454.7,337.8ZM261.6,55.2a5.47,5.47,0,0,0-5.46,5.46V332.09a5.47,5.47,0,0,0,5.46,5.46H454.7a5.47,5.47,0,0,0,5.46-5.46V60.66a5.47,5.47,0,0,0-5.46-5.46Z" style="fill:#ebebeb"/><rect y="382.4" width="500" height="0.25" style="fill:#ebebeb"/><path d="M247.83,338.21c-8.33-8.56-10.55-21-12.2-32.41-1.69-11.77-2.4-23.95-6.35-35.26C225.6,260,218.8,251.85,208.45,247.4c-10.79-4.64-22.73-5.66-34.25-7.17-12.83-1.68-27.48-3.4-37.2-12.85-2-2-5.15,1.13-3.11,3.11C151,247.14,178.81,243,200.16,249.12c11.64,3.34,20.31,10.18,24.57,21.71,4.13,11.2,4.86,23.4,6.51,35.13,1.76,12.54,4.33,26,13.48,35.37,2,2,5.09-1.08,3.11-3.12Z" style="fill:#ebebeb"/><path d="M275.54,310.51c-17.12-16.65-44.92-12.5-66.27-18.63-11.64-3.34-20.31-10.18-24.57-21.71-4.14-11.21-4.87-23.41-6.52-35.14-1.76-12.53-4.32-25.94-13.47-35.36-2-2-5.09,1.08-3.11,3.11,8.32,8.57,10.55,21,12.19,32.42,1.7,11.77,2.41,23.95,6.36,35.26,3.68,10.53,10.47,18.68,20.82,23.13,10.79,4.64,22.74,5.67,34.26,7.18,12.83,1.68,27.48,3.4,37.2,12.85,2,2,5.14-1.14,3.11-3.11Z" style="fill:#f5f5f5"/><path d="M140.61,225.32l18.93-18.92a1.1,1.1,0,0,0-1.56-1.56l-18.92,18.93a1.1,1.1,0,0,0,1.55,1.55Z" style="fill:#e0e0e0"/><path d="M149,231.78l17-17a1.1,1.1,0,0,0-1.55-1.56l-17,17a1.1,1.1,0,0,0,1.56,1.56Z" style="fill:#f5f5f5"/><path d="M160.15,235.4l9.46-9.47a1.1,1.1,0,0,0-1.55-1.55l-9.47,9.46a1.1,1.1,0,0,0,1.56,1.56Z" style="fill:#e0e0e0"/><path d="M184.63,255.33l4.92-4.92a1.1,1.1,0,0,0-1.56-1.55l-4.92,4.92a1.1,1.1,0,0,0,1.56,1.55Z" style="fill:#f5f5f5"/><path d="M188.34,266.43l12.3-12.31a1.1,1.1,0,0,0-1.55-1.55l-12.31,12.3a1.1,1.1,0,0,0,1.56,1.56Z" style="fill:#e0e0e0"/><path d="M192.43,277.14l18.93-18.93a1.1,1.1,0,0,0-1.56-1.55l-18.93,18.93a1.1,1.1,0,0,0,1.56,1.55Z" style="fill:#f5f5f5"/><path d="M199.83,284.54l18.93-18.92a1.1,1.1,0,0,0-1.56-1.56L198.28,283a1.1,1.1,0,0,0,1.55,1.55Z" style="fill:#e0e0e0"/><path d="M210.55,288.63l12.3-12.3a1.1,1.1,0,0,0-1.56-1.55L209,287.08a1.1,1.1,0,0,0,1.56,1.55Z" style="fill:#f5f5f5"/><path d="M221.64,292.35l4.92-4.92a1.1,1.1,0,0,0-1.55-1.56l-4.93,4.92a1.1,1.1,0,0,0,1.56,1.56Z" style="fill:#e0e0e0"/><path d="M269,315.88l-18.93,18.93a1.1,1.1,0,0,0,1.56,1.55l18.93-18.92a1.1,1.1,0,0,0-1.56-1.56Z" style="fill:#f5f5f5"/><path d="M260.67,309.42l-17,17a1.1,1.1,0,0,0,1.55,1.55l17-17a1.1,1.1,0,0,0-1.56-1.56Z" style="fill:#e0e0e0"/><path d="M249.48,305.81,240,315.27a1.1,1.1,0,0,0,1.56,1.56l9.46-9.47a1.1,1.1,0,0,0-1.56-1.55Z" style="fill:#f5f5f5"/><path d="M296.65,276.71c5.6-5.44,13.74-6.9,21.19-8,7.69-1.11,15.65-1.57,23-4.15,6.88-2.41,12.21-6.85,15.12-13.61,3-7,3.7-14.86,4.69-22.39,1.1-8.38,2.22-18,8.4-24.31,1.28-1.33-.74-3.36-2-2-10.87,11.19-8.16,29.35-12.17,43.31-2.18,7.6-6.65,13.27-14.19,16.05-7.32,2.7-15.29,3.18-23,4.26-8.19,1.15-17,2.83-23.11,8.81-1.33,1.29.71,3.32,2,2Z" style="fill:#ebebeb"/><path d="M314.76,294.82c10.88-11.19,8.17-29.36,12.17-43.31,2.19-7.61,6.66-13.27,14.19-16.06,7.33-2.7,15.3-3.18,23-4.25,8.2-1.16,17-2.83,23.11-8.81,1.33-1.29-.7-3.33-2-2-5.6,5.45-13.74,6.9-21.18,8-7.69,1.1-15.66,1.57-23.05,4.15-6.88,2.41-12.21,6.84-15.12,13.61-3,7-3.7,14.86-4.68,22.39-1.1,8.38-2.23,18-8.4,24.31-1.29,1.32.74,3.36,2,2Z" style="fill:#f5f5f5"/><path d="M370.43,206.64,382.8,219a.72.72,0,0,0,1-1l-12.37-12.37a.72.72,0,0,0-1,1Z" style="fill:#e0e0e0"/><path d="M366.21,212.1l11.13,11.13a.72.72,0,0,0,1-1l-11.13-11.13a.72.72,0,0,0-1,1Z" style="fill:#f5f5f5"/><path d="M363.85,219.41l6.18,6.18a.72.72,0,0,0,1-1l-6.19-6.19a.72.72,0,0,0-1,1Z" style="fill:#e0e0e0"/><path d="M350.82,235.41l3.21,3.21c.66.66,1.68-.36,1-1l-3.21-3.22a.72.72,0,0,0-1,1Z" style="fill:#f5f5f5"/><path d="M343.57,237.83l8,8a.72.72,0,0,0,1-1l-8-8c-.66-.66-1.68.36-1,1Z" style="fill:#e0e0e0"/><path d="M336.57,240.51l12.37,12.36a.71.71,0,0,0,1-1q-6.18-6.2-12.37-12.37c-.65-.66-1.67.36-1,1Z" style="fill:#f5f5f5"/><path d="M331.73,245.34q6.18,6.19,12.37,12.37a.71.71,0,0,0,1-1l-12.36-12.37c-.66-.66-1.68.36-1,1Z" style="fill:#e0e0e0"/><path d="M329.06,252.35l8,8a.72.72,0,0,0,1-1l-8-8c-.65-.66-1.67.36-1,1Z" style="fill:#f5f5f5"/><path d="M326.63,259.6l3.22,3.21c.65.66,1.67-.36,1-1l-3.21-3.21a.72.72,0,0,0-1,1Z" style="fill:#e0e0e0"/><path d="M311.25,290.56l-12.37-12.37a.72.72,0,0,0-1,1l12.37,12.37a.72.72,0,0,0,1-1Z" style="fill:#f5f5f5"/><path d="M315.47,285.1,304.34,274a.72.72,0,0,0-1,1l11.13,11.13a.72.72,0,0,0,1-1Z" style="fill:#e0e0e0"/><path d="M317.83,277.79l-6.18-6.18a.72.72,0,0,0-1,1l6.19,6.19a.72.72,0,0,0,1-1Z" style="fill:#f5f5f5"/><path d="M301.09,159.65c3.36,3.47,4.27,8.5,4.93,13.1.68,4.76,1,9.68,2.57,14.25a15.12,15.12,0,0,0,8.41,9.35c4.36,1.87,9.19,2.29,13.85,2.9,5.18.68,11.1,1.37,15,5.19.82.8,2.08-.46,1.25-1.26-6.92-6.72-18.15-5-26.78-7.52-4.7-1.35-8.2-4.12-9.92-8.78s-2-9.45-2.64-14.19c-.71-5.07-1.75-10.49-5.44-14.29-.8-.82-2.06.43-1.26,1.25Z" style="fill:#ebebeb"/><path d="M289.89,170.85c6.92,6.73,18.16,5.05,26.78,7.53,4.71,1.35,8.21,4.11,9.93,8.77s2,9.46,2.63,14.2c.72,5.06,1.75,10.48,5.45,14.29.8.82,2.06-.44,1.26-1.26-3.37-3.46-4.27-8.5-4.93-13.1-.69-4.75-1-9.68-2.57-14.25a15.16,15.16,0,0,0-8.42-9.35c-4.36-1.87-9.18-2.29-13.84-2.9-5.18-.67-11.1-1.37-15-5.19-.82-.79-2.08.46-1.26,1.26Z" style="fill:#f5f5f5"/><path d="M344.42,205.27l-7.65,7.65a.45.45,0,0,0,.63.63l7.65-7.65c.4-.4-.23-1-.63-.63Z" style="fill:#e0e0e0"/><path d="M341,202.66l-6.88,6.89a.45.45,0,0,0,.63.63l6.88-6.89c.41-.4-.22-1-.63-.63Z" style="fill:#f5f5f5"/><path d="M336.52,201.2,332.7,205c-.41.4.22,1,.63.62,1.27-1.27,2.55-2.54,3.82-3.82.41-.4-.22-1-.63-.63Z" style="fill:#e0e0e0"/><path d="M326.63,193.15l-2,2c-.4.41.23,1,.63.63.66-.66,1.33-1.32,2-2a.44.44,0,0,0-.63-.62Z" style="fill:#f5f5f5"/><path d="M325.13,188.66l-5,5a.45.45,0,0,0,.63.63l5-5a.45.45,0,0,0-.63-.63Z" style="fill:#e0e0e0"/><path d="M323.48,184.33,315.83,192a.45.45,0,0,0,.63.63l7.65-7.65c.4-.4-.23-1-.63-.63Z" style="fill:#f5f5f5"/><path d="M320.49,181.34,312.84,189c-.41.4.22,1,.63.63l7.64-7.65a.44.44,0,0,0-.62-.63Z" style="fill:#e0e0e0"/><path d="M316.16,179.69c-1.66,1.66-3.32,3.31-5,5a.44.44,0,0,0,.62.63l5-5c.41-.41-.22-1-.62-.63Z" style="fill:#f5f5f5"/><path d="M311.67,178.19l-2,2a.44.44,0,0,0,.62.63l2-2a.45.45,0,0,0-.63-.63Z" style="fill:#e0e0e0"/><path d="M292.53,168.68l7.65-7.65c.4-.4-.23-1-.63-.63l-7.65,7.65c-.41.4.22,1,.63.63Z" style="fill:#f5f5f5"/><path d="M295.9,171.29l6.88-6.89a.44.44,0,0,0-.62-.62l-6.89,6.88c-.4.4.23,1,.63.63Z" style="fill:#e0e0e0"/><path d="M300.42,172.75l3.83-3.82c.4-.41-.23-1-.63-.63l-3.83,3.82c-.4.4.23,1,.63.63Z" style="fill:#f5f5f5"/><polygon points="204.21 153.79 204.21 165.05 192.96 165.05 192.96 175.99 181.7 175.99 181.7 165.05 170.76 165.05 170.76 153.79 181.7 153.79 181.7 142.54 192.96 142.54 192.96 153.79 204.21 153.79" style="fill:#ebebeb"/><polygon points="219.76 126.22 219.76 133.69 212.3 133.69 212.3 140.95 204.83 140.95 204.83 133.69 197.57 133.69 197.57 126.22 204.83 126.22 204.83 118.76 212.3 118.76 212.3 126.22 219.76 126.22" style="fill:#ebebeb"/><polygon points="182.73 188.03 182.73 191.93 178.84 191.93 178.84 195.72 174.94 195.72 174.94 191.93 171.16 191.93 171.16 188.03 174.94 188.03 174.94 184.14 178.84 184.14 178.84 188.03 182.73 188.03" style="fill:#ebebeb"/><polygon points="186.31 362.94 186.31 351.68 197.57 351.68 197.57 340.74 208.82 340.74 208.82 351.68 219.76 351.68 219.76 362.94 208.82 362.94 208.82 374.19 197.57 374.19 197.57 362.94 186.31 362.94" style="fill:#ebebeb"/><polygon points="207.79 328.69 207.79 324.8 211.69 324.8 211.69 321.01 215.58 321.01 215.58 324.8 219.37 324.8 219.37 328.69 215.58 328.69 215.58 332.59 211.69 332.59 211.69 328.69 207.79 328.69" style="fill:#ebebeb"/><polygon points="281.83 353.98 281.83 346.51 289.3 346.51 289.3 339.25 296.77 339.25 296.77 346.51 304.03 346.51 304.03 353.98 296.77 353.98 296.77 361.45 289.3 361.45 289.3 353.98 281.83 353.98" style="fill:#ebebeb"/><polygon points="301.17 307.38 301.17 303.48 305.07 303.48 305.07 299.7 308.96 299.7 308.96 303.48 312.75 303.48 312.75 307.38 308.96 307.38 308.96 311.27 305.07 311.27 305.07 307.38 301.17 307.38" style="fill:#ebebeb"/></g><g id="freepik--Shadow--inject-471"><ellipse id="freepik--path--inject-471" cx="245.18" cy="412.39" rx="193.89" ry="11.32" style="fill:#f5f5f5"/></g><g id="freepik--Intestine--inject-471"><path d="M140.29,347.64s4.33,4.15,12.23,2.18l8.41-2.18,5.19-3.63,1.87-4.75,1.14-7.18v-9.73l-4.25.91-7.47,2-4.89,1.24H146L139.36,324l-3.32.83V333l.52,9.93Z" style="fill:#407BFF"/><path d="M140.29,347.64s4.33,4.15,12.23,2.18l8.41-2.18,5.19-3.63,1.87-4.75,1.14-7.18v-9.73l-4.25.91-7.47,2-4.89,1.24H146L139.36,324l-3.32.83V333l.52,9.93Z" style="fill:#fff;opacity:0.6000000000000001"/><g style="opacity:0.30000000000000004"><path d="M165.15,336.45A7.39,7.39,0,0,0,158,337.8a5.21,5.21,0,0,0-3.56-.76,6.47,6.47,0,0,0-1.37-1.66c.5-.45,1.18-1.55.48-4.16a.31.31,0,0,0-.38-.22.32.32,0,0,0-.22.38c.68,2.55-.07,3.37-.39,3.6a9.37,9.37,0,0,0-3.69-1.57l-.21,0-.11.19c-.82,1.42-1.73,2.16-2.71,2.19h-.06c-1.57,0-2.92-1.77-3.19-2.14a9.65,9.65,0,0,0-.74-3.62.32.32,0,0,0-.43-.09.31.31,0,0,0-.1.43,9.22,9.22,0,0,1,.65,3.39v.09l0,.08c.07.1,1.71,2.59,3.84,2.48,1.16,0,2.21-.81,3.11-2.31.81.18,3.75,1,5,3.45l.1.2.22,0s2.42-.35,3.46.76l.23.24.22-.24A6.72,6.72,0,0,1,165,337a.31.31,0,0,0,.39-.2A.3.3,0,0,0,165.15,336.45Z"/><path d="M150.31,342.71a2.22,2.22,0,0,0,1.2-1.45.31.31,0,0,0-.22-.38.31.31,0,0,0-.38.22,2,2,0,0,1-1.82,1.33h0a21.27,21.27,0,0,1-3.29,0,.31.31,0,0,0-.34.28.33.33,0,0,0,.29.34,21.21,21.21,0,0,0,3.38,0h0c1-.08,2.2,1.27,2.58,1.81a.3.3,0,0,0,.26.13.31.31,0,0,0,.18-.05.32.32,0,0,0,.07-.44A6.6,6.6,0,0,0,150.31,342.71Z"/><path d="M159.38,334.45a.31.31,0,0,0,.27.35h0a.31.31,0,0,0,.31-.27,8,8,0,0,0-.31-3.62,4.84,4.84,0,0,1,3.68-1,.32.32,0,0,0,.36-.26.32.32,0,0,0-.26-.36,5.56,5.56,0,0,0-4,1,7.62,7.62,0,0,0-3.13-3.48.32.32,0,0,0-.42.14.31.31,0,0,0,.14.42A6.87,6.87,0,0,1,159.38,334.45Z"/><path d="M169.39,331.91a.31.31,0,0,0-.42-.1,7.07,7.07,0,0,1-5.45.6.3.3,0,0,0-.39.19.32.32,0,0,0,.19.4,8.07,8.07,0,0,0,2.31.33,6.88,6.88,0,0,0,3.66-1A.31.31,0,0,0,169.39,331.91Z"/><path d="M145,332.51a.31.31,0,0,0,.27.35h0a.32.32,0,0,0,.31-.27c.48-3.45-2.45-6.51-2.58-6.64a.32.32,0,0,0-.44,0,.31.31,0,0,0,0,.44S145.43,329.36,145,332.51Z"/><path d="M158.1,341.46a1.67,1.67,0,0,0-.65-.61,5.46,5.46,0,0,0-3.38-.1,2.13,2.13,0,0,0-1.45-2.43c-2.46-.87-4.89.56-5.5,1-4.12-1.47-7.59,2.31-7.73,2.47a.3.3,0,0,0,0,.44.31.31,0,0,0,.44,0s3.4-3.71,7.2-2.25l.16.06.14-.1s2.6-1.85,5.06-1a1.64,1.64,0,0,1,1,2.17l-.2.58.58-.18c.63-.2,2.47-.59,3.41-.08a1,1,0,0,1,.52.64l.13.48.37-.33c.61-.53,2.45-1.79,3.63-1.25a.31.31,0,1,0,.27-.56C160.65,339.72,158.84,340.9,158.1,341.46Z"/><path d="M146.93,346.19a5.15,5.15,0,0,0,.68-.5.32.32,0,0,0,0-.44.31.31,0,0,0-.44,0c-2.58,2.31-6.55.67-6.59.65a.32.32,0,0,0-.41.17.32.32,0,0,0,.16.41,9.54,9.54,0,0,0,3.32.64,6.68,6.68,0,0,0,2.16-.35,3.35,3.35,0,0,1,2.79,1.08.35.35,0,0,0,.26.13.32.32,0,0,0,.18-.06.31.31,0,0,0,.07-.43A3.4,3.4,0,0,0,146.93,346.19Z"/></g><path d="M172.33,326.48a2.3,2.3,0,0,0-.94-1.79,2.75,2.75,0,0,0,1.53-2.34c0-1.59-1.64-2.88-3.65-2.88a3.42,3.42,0,0,0-3.61,2.61,4.4,4.4,0,0,0-6.22,1.33,2.86,2.86,0,0,0-5.07,1.53,2.84,2.84,0,0,0-4.4.2,2.87,2.87,0,0,0-5-.75A2.85,2.85,0,0,0,140.3,323a4,4,0,0,0-3.59-1.91c-2.16,0-3.92,1.43-3.92,3.2a2.71,2.71,0,0,0,.59,1.66,3.17,3.17,0,0,0,.08,5.12,3.12,3.12,0,0,0-.67,1.93,3.19,3.19,0,0,0,1.58,2.75,3.12,3.12,0,0,0-.77,2.06,3.19,3.19,0,0,0,1.92,2.93,3.17,3.17,0,0,0,.59,5.42,3.38,3.38,0,0,0-.79,2.17A3.42,3.42,0,1,0,140,345.1a3.15,3.15,0,0,0,.63-1.88,3.2,3.2,0,0,0-1.92-2.93,3.17,3.17,0,0,0-.32-5.27,3.16,3.16,0,0,0-.56-4.66,3.12,3.12,0,0,0,.41-3.18,4,4,0,0,0,1.33-.78,2.87,2.87,0,0,0,4.9.43,2.87,2.87,0,0,0,5.06,1,2.87,2.87,0,0,0,5.56-.66,2.86,2.86,0,0,0,4.82-.93,4,4,0,0,0,3.54.82,3.73,3.73,0,0,0,3.1-2.79,5.06,5.06,0,0,0,.58.42,2.25,2.25,0,0,0-.95,1.79,2.42,2.42,0,0,0,1.41,2.09,2.49,2.49,0,0,0-.83,1.86,2.53,2.53,0,0,0,1,2,1.94,1.94,0,0,0-1,1.64,1.87,1.87,0,0,0,.73,1.44,2.5,2.5,0,0,0-.77,3.77,3.11,3.11,0,0,0-2.49,3,3.19,3.19,0,0,0,.06.53h-.06a3.1,3.1,0,0,0-3.1,3.1,2.3,2.3,0,0,0,0,.26,3.51,3.51,0,0,0-4.69,1.1,3.33,3.33,0,0,0-2.18-1.38,2.82,2.82,0,0,0-3.48,1.87,2.14,2.14,0,0,0,.33,1.57,3.07,3.07,0,0,0,.59,5,3.21,3.21,0,0,0-1,2.56c.1,2.8,2.21,3.32,2.45,4.88h1.12a4.35,4.35,0,0,1,1.3-2.39c1-1.06,1.2-4-.54-5.31a3.05,3.05,0,0,0,.88-3.84,2.14,2.14,0,0,0,.58-.62,3.1,3.1,0,0,0,3.15,1,3,3,0,0,0,2.52-2.4,3.08,3.08,0,0,0,5.12-2.33,3.07,3.07,0,0,0,0-.53h0a3.1,3.1,0,0,0,2.17-5.32,2.5,2.5,0,0,0,.91-4.22,2,2,0,0,0,1.38-1.81,1.94,1.94,0,0,0-1-1.64,2.51,2.51,0,0,0,.2-3.92A2.41,2.41,0,0,0,172.33,326.48Z" style="fill:#407BFF"/><path d="M152.58,367.6a8.3,8.3,0,0,1-4.15-1.11l-20.51-11.84a8.35,8.35,0,0,1-4.16-7.2V323.77a8.35,8.35,0,0,1,4.16-7.2l20.51-11.84a8.33,8.33,0,0,1,8.31,0l20.51,11.84a8.34,8.34,0,0,1,4.15,7.2v23.68a8.34,8.34,0,0,1-4.15,7.2l-20.51,11.84A8.31,8.31,0,0,1,152.58,367.6Zm0-60.48a4.78,4.78,0,0,0-2.4.65L129.67,319.6a4.85,4.85,0,0,0-2.41,4.17v23.68a4.85,4.85,0,0,0,2.41,4.17l20.51,11.84a4.81,4.81,0,0,0,4.81,0l20.51-11.84a4.84,4.84,0,0,0,2.4-4.17V323.77a4.84,4.84,0,0,0-2.4-4.17L155,307.77A4.79,4.79,0,0,0,152.58,307.12Z" style="fill:#407BFF"/><g style="opacity:0.5"><path d="M152.58,367.6a8.3,8.3,0,0,1-4.15-1.11l-20.51-11.84a8.35,8.35,0,0,1-4.16-7.2V323.77a8.35,8.35,0,0,1,4.16-7.2l20.51-11.84a8.33,8.33,0,0,1,8.31,0l20.51,11.84a8.34,8.34,0,0,1,4.15,7.2v23.68a8.34,8.34,0,0,1-4.15,7.2l-20.51,11.84A8.31,8.31,0,0,1,152.58,367.6Zm0-60.48a4.78,4.78,0,0,0-2.4.65L129.67,319.6a4.85,4.85,0,0,0-2.41,4.17v23.68a4.85,4.85,0,0,0,2.41,4.17l20.51,11.84a4.81,4.81,0,0,0,4.81,0l20.51-11.84a4.84,4.84,0,0,0,2.4-4.17V323.77a4.84,4.84,0,0,0-2.4-4.17L155,307.77A4.79,4.79,0,0,0,152.58,307.12Z" style="fill:#fff"/></g><path d="M177.25,316.57l-4.94-2.85-2.4,2.66,5.59,3.22a4.84,4.84,0,0,1,2.4,4.17v23.68a4.84,4.84,0,0,1-2.4,4.17L155,363.46a4.81,4.81,0,0,1-4.81,0l-14.92-8.62-2.4,2.66,15.57,9a8.33,8.33,0,0,0,8.31,0l20.51-11.84a8.34,8.34,0,0,0,4.15-7.2V323.77A8.34,8.34,0,0,0,177.25,316.57Z" style="opacity:0.1"/></g><g id="freepik--Spleen--inject-471"><path d="M348.23,367.6a8.31,8.31,0,0,1-4.16-1.11l-20.5-11.84a8.33,8.33,0,0,1-4.16-7.2V323.77a8.33,8.33,0,0,1,4.16-7.2l20.5-11.84a8.35,8.35,0,0,1,8.32,0l20.5,11.84a8.33,8.33,0,0,1,4.16,7.2v23.68a8.33,8.33,0,0,1-4.16,7.2l-20.5,11.84A8.34,8.34,0,0,1,348.23,367.6Zm0-60.48a4.82,4.82,0,0,0-2.41.65l-20.5,11.83a4.83,4.83,0,0,0-2.41,4.17v23.68a4.83,4.83,0,0,0,2.41,4.17l20.5,11.84a4.82,4.82,0,0,0,4.82,0l20.5-11.84a4.83,4.83,0,0,0,2.41-4.17V323.77a4.83,4.83,0,0,0-2.41-4.17l-20.5-11.83A4.84,4.84,0,0,0,348.23,307.12Z" style="fill:#407BFF"/><g style="opacity:0.5"><path d="M348.23,367.6a8.31,8.31,0,0,1-4.16-1.11l-20.5-11.84a8.33,8.33,0,0,1-4.16-7.2V323.77a8.33,8.33,0,0,1,4.16-7.2l20.5-11.84a8.35,8.35,0,0,1,8.32,0l20.5,11.84a8.33,8.33,0,0,1,4.16,7.2v23.68a8.33,8.33,0,0,1-4.16,7.2l-20.5,11.84A8.34,8.34,0,0,1,348.23,367.6Zm0-60.48a4.82,4.82,0,0,0-2.41.65l-20.5,11.83a4.83,4.83,0,0,0-2.41,4.17v23.68a4.83,4.83,0,0,0,2.41,4.17l20.5,11.84a4.82,4.82,0,0,0,4.82,0l20.5-11.84a4.83,4.83,0,0,0,2.41-4.17V323.77a4.83,4.83,0,0,0-2.41-4.17l-20.5-11.83A4.84,4.84,0,0,0,348.23,307.12Z" style="fill:#fff"/></g><path d="M372.89,316.57,368,313.72l-2.39,2.66,5.58,3.22a4.83,4.83,0,0,1,2.41,4.17v23.68a4.83,4.83,0,0,1-2.41,4.17l-20.5,11.84a4.82,4.82,0,0,1-4.82,0l-14.92-8.62-2.39,2.66,15.56,9a8.35,8.35,0,0,0,8.32,0l20.5-11.84a8.33,8.33,0,0,0,4.16-7.2V323.77A8.33,8.33,0,0,0,372.89,316.57Z" style="opacity:0.1"/><path d="M346.49,337a21.32,21.32,0,0,1,4.05,9.56c.66,4.45,4.19,4.06,6.68,3,2.18-.92,3.95-2.94,2.7-5.88a3.54,3.54,0,0,1,0-2.73c.59-1.4,1.14-3.56-.06-5.16a3.13,3.13,0,0,1-.63-2.51c.38-2,.44-5.31-3.2-6.43a2.57,2.57,0,0,1-1.87-2c-.31-2.16-1.73-5.34-7.65-2.88C338,325.44,344.32,333.88,346.49,337Z" style="fill:#407BFF"/><path d="M354,344c-.65-4.32-.72-7.92-3.6-10.67s-2.68-6.43-5.82-6.41-1.43,4.6-1.42,4.63a32.69,32.69,0,0,0,3.32,5.45,21.32,21.32,0,0,1,4.05,9.56C350.94,348.87,354.67,348.28,354,344Z" style="opacity:0.2"/><path d="M352.2,344a4.85,4.85,0,0,1-2.95-1,1.86,1.86,0,0,1-.52-1.4,4.48,4.48,0,0,0-.51-2l.39,0a9.35,9.35,0,0,0,2.37-.36.53.53,0,0,0,.35-.65.52.52,0,0,0-.65-.35c-.9.26-2.59.51-3.3.06h0a4.39,4.39,0,0,0-1.53-.58,15.57,15.57,0,0,1,3.07-1.79.53.53,0,0,0,.27-.69.52.52,0,0,0-.7-.26,14.31,14.31,0,0,0-4.35,2.84h0c-.18.18-.34.35-.48.52.29-2.57.86-4.56,1.4-4.94a4.91,4.91,0,0,1,1.7-.25.54.54,0,0,0,.45-.6.53.53,0,0,0-.6-.44l-1.11.16.57-1.7a.52.52,0,0,0-1-.34l-.83,2.47a15.69,15.69,0,0,0-1.75,7.72,3.06,3.06,0,0,1-.89,2.31c-1.67,1.66-5.08,1.61-5.12,1.62a.54.54,0,0,0-.54.51.52.52,0,0,0,.52.53h.08c.58,0,3.94-.08,5.79-1.92a4.84,4.84,0,0,0,1.2-2.95,2,2,0,0,1,1.24-1.86,2.25,2.25,0,0,1,2,.49,3.88,3.88,0,0,1,.95,2.43,2.84,2.84,0,0,0,.82,2.16,5.79,5.79,0,0,0,3.69,1.33.53.53,0,0,0,.53-.53A.52.52,0,0,0,352.2,344Z" style="fill:#407BFF"/><path d="M352.2,344a4.85,4.85,0,0,1-2.95-1,1.86,1.86,0,0,1-.52-1.4,4.48,4.48,0,0,0-.51-2l.39,0a9.35,9.35,0,0,0,2.37-.36.53.53,0,0,0,.35-.65.52.52,0,0,0-.65-.35c-.9.26-2.59.51-3.3.06h0a4.39,4.39,0,0,0-1.53-.58,15.57,15.57,0,0,1,3.07-1.79.53.53,0,0,0,.27-.69.52.52,0,0,0-.7-.26,14.31,14.31,0,0,0-4.35,2.84h0c-.18.18-.34.35-.48.52.29-2.57.86-4.56,1.4-4.94a4.91,4.91,0,0,1,1.7-.25.54.54,0,0,0,.45-.6.53.53,0,0,0-.6-.44l-1.11.16.57-1.7a.52.52,0,0,0-1-.34l-.83,2.47a15.69,15.69,0,0,0-1.75,7.72,3.06,3.06,0,0,1-.89,2.31c-1.67,1.66-5.08,1.61-5.12,1.62a.54.54,0,0,0-.54.51.52.52,0,0,0,.52.53h.08c.58,0,3.94-.08,5.79-1.92a4.84,4.84,0,0,0,1.2-2.95,2,2,0,0,1,1.24-1.86,2.25,2.25,0,0,1,2,.49,3.88,3.88,0,0,1,.95,2.43,2.84,2.84,0,0,0,.82,2.16,5.79,5.79,0,0,0,3.69,1.33.53.53,0,0,0,.53-.53A.52.52,0,0,0,352.2,344Z" style="fill:#fff;opacity:0.5"/></g><g id="freepik--Kidneys--inject-471"><path d="M378.7,300.35a8.31,8.31,0,0,1-4.16-1.11L354,287.41a8.33,8.33,0,0,1-4.16-7.21V256.53a8.33,8.33,0,0,1,4.16-7.2l20.5-11.84a8.35,8.35,0,0,1,8.32,0l20.5,11.84a8.33,8.33,0,0,1,4.16,7.2V280.2a8.33,8.33,0,0,1-4.16,7.21l-20.5,11.83A8.31,8.31,0,0,1,378.7,300.35Zm0-60.47a4.83,4.83,0,0,0-2.41.64l-20.5,11.84a4.81,4.81,0,0,0-2.41,4.17V280.2a4.81,4.81,0,0,0,2.41,4.17l20.5,11.84a4.82,4.82,0,0,0,4.82,0l20.5-11.84A4.81,4.81,0,0,0,404,280.2V256.53a4.81,4.81,0,0,0-2.41-4.17l-20.5-11.84A4.81,4.81,0,0,0,378.7,239.88Z" style="fill:#407BFF"/><g style="opacity:0.5"><path d="M378.7,300.35a8.31,8.31,0,0,1-4.16-1.11L354,287.41a8.33,8.33,0,0,1-4.16-7.21V256.53a8.33,8.33,0,0,1,4.16-7.2l20.5-11.84a8.35,8.35,0,0,1,8.32,0l20.5,11.84a8.33,8.33,0,0,1,4.16,7.2V280.2a8.33,8.33,0,0,1-4.16,7.21l-20.5,11.83A8.31,8.31,0,0,1,378.7,300.35Zm0-60.47a4.83,4.83,0,0,0-2.41.64l-20.5,11.84a4.81,4.81,0,0,0-2.41,4.17V280.2a4.81,4.81,0,0,0,2.41,4.17l20.5,11.84a4.82,4.82,0,0,0,4.82,0l20.5-11.84A4.81,4.81,0,0,0,404,280.2V256.53a4.81,4.81,0,0,0-2.41-4.17l-20.5-11.84A4.81,4.81,0,0,0,378.7,239.88Z" style="fill:#fff"/></g><path d="M403.36,249.33l-4.94-2.86L396,249.13l5.58,3.23a4.81,4.81,0,0,1,2.41,4.17V280.2a4.81,4.81,0,0,1-2.41,4.17l-20.5,11.84a4.82,4.82,0,0,1-4.82,0l-14.92-8.61L359,290.26l15.56,9a8.35,8.35,0,0,0,8.32,0l20.5-11.83a8.33,8.33,0,0,0,4.16-7.21V256.53A8.33,8.33,0,0,0,403.36,249.33Z" style="opacity:0.1"/><path d="M387.88,268.61l-3.83-.23,2.64-1.1-.35-.58s-1.47,1.22-6.28,1.7v.87c2.6-.25,6.37-.49,8.07,0Z" style="fill:#407BFF"/><path d="M387.88,268.61l-3.83-.23,2.64-1.1-.35-.58s-1.47,1.22-6.28,1.7v.87c2.6-.25,6.37-.49,8.07,0Z" style="fill:#fff;opacity:0.5"/><path d="M380.06,270.76c2.57.26,6.92.82,8.65,1.69l-.11-.66-3.71-1,2.81-.54-.22-.64s-1.9,1-7.42.27Z" style="fill:#407BFF"/><path d="M380.06,270.76c2.57.26,6.92.82,8.65,1.69l-.11-.66-3.71-1,2.81-.54-.22-.64s-1.9,1-7.42.27Z" style="opacity:0.2"/><path d="M386.64,270.55c-7.82,0-7.91,12.55.48,12.55,9,0,8.21-9.61,8.21-13.77s.76-13.75-8.21-13.75c-8.39,0-8.3,12.56-.48,12.56a2.51,2.51,0,0,0-.28,1.19A3.24,3.24,0,0,0,386.64,270.55Z" style="fill:#407BFF"/><path d="M386.64,270.55c-7.82,0-7.91,12.55.48,12.55,9,0,8.21-9.61,8.21-13.77s.76-13.75-8.21-13.75c-8.39,0-8.3,12.56-.48,12.56a2.51,2.51,0,0,0-.28,1.19A3.24,3.24,0,0,0,386.64,270.55Z" style="fill:#fff;opacity:0.30000000000000004"/><g style="opacity:0.30000000000000004"><path d="M393.22,263.91a.57.57,0,0,1-.57-.52c-.28-2.65-1.45-4.32-3.47-5a.58.58,0,1,1,.36-1.1c1.72.56,3.85,2,4.26,6a.59.59,0,0,1-.52.64Z" style="fill:#fff"/></g><g style="opacity:0.30000000000000004"><path d="M386.79,258.16a.58.58,0,0,1-.08-1.15,5.61,5.61,0,0,1,1.21,0,.58.58,0,0,1-.09,1.16,5.11,5.11,0,0,0-1,0Z" style="fill:#fff"/></g><path d="M387.12,283.1c9,0,8.21-9.61,8.21-13.77,0-1.12.06-2.64,0-4.26,0,1.79-.82,2.59-1.74,2.92a1.26,1.26,0,0,0-.64,1.78c.86,1.68.9,3.9.1,3.22a2.45,2.45,0,0,0-.83-.46,1,1,0,0,0-1.16,1.32c1.48,3.06-.79,7.6-4.56,7.6a5.68,5.68,0,0,1-5.56-3.57A6,6,0,0,0,387.12,283.1Z" style="fill:#407BFF"/><path d="M389,266.19c-.48-1.72-5.34,2.08-8.06-3a5.62,5.62,0,0,0,5.73,5S389.39,267.67,389,266.19Z" style="fill:#407BFF"/><path d="M369.52,266.66l3.83-.23-2.64-1.1.35-.59s1.47,1.23,6.28,1.7v.88c-2.6-.25-6.37-.49-8.06,0Z" style="fill:#407BFF"/><path d="M369.52,266.66l3.83-.23-2.64-1.1.35-.59s1.47,1.23,6.28,1.7v.88c-2.6-.25-6.37-.49-8.06,0Z" style="fill:#fff;opacity:0.5"/><path d="M377.34,268.81c-2.57.26-6.92.81-8.65,1.69l.11-.67,3.71-1-2.81-.54.22-.65s1.9,1,7.42.28Z" style="fill:#407BFF"/><path d="M377.34,268.81c-2.57.26-6.92.81-8.65,1.69l.11-.67,3.71-1-2.81-.54.22-.65s1.9,1,7.42.28Z" style="opacity:0.2"/><path d="M370.76,268.59c7.82,0,7.91,12.56-.48,12.56-9,0-8.21-9.61-8.21-13.77s-.76-13.75,8.21-13.75c8.39,0,8.3,12.55.48,12.55a2.57,2.57,0,0,1,.28,1.2A3.16,3.16,0,0,1,370.76,268.59Z" style="fill:#407BFF"/><path d="M370.76,268.59c7.82,0,7.91,12.56-.48,12.56-9,0-8.21-9.61-8.21-13.77s-.76-13.75,8.21-13.75c8.39,0,8.3,12.55.48,12.55a2.57,2.57,0,0,1,.28,1.2A3.16,3.16,0,0,1,370.76,268.59Z" style="fill:#fff;opacity:0.30000000000000004"/><g style="opacity:0.30000000000000004"><path d="M364.18,262a.58.58,0,0,0,.57-.52c.28-2.65,1.45-4.33,3.47-5a.58.58,0,0,0,.37-.73.57.57,0,0,0-.73-.37c-1.72.55-3.85,2-4.26,6a.58.58,0,0,0,.52.63Z" style="fill:#fff"/></g><g style="opacity:0.30000000000000004"><path d="M370.61,256.21a.58.58,0,0,0,.08-1.16,6.09,6.09,0,0,0-1.21,0,.58.58,0,1,0,.09,1.15,5.58,5.58,0,0,1,1,0Z" style="fill:#fff"/></g><path d="M370.28,281.15c-9,0-8.21-9.61-8.21-13.77,0-1.13-.06-2.64,0-4.26,0,1.79.82,2.59,1.74,2.92a1.25,1.25,0,0,1,.64,1.78c-.86,1.68-.9,3.9-.1,3.21a2.64,2.64,0,0,1,.83-.46,1,1,0,0,1,1.16,1.33c-1.48,3.06.79,7.59,4.56,7.59a5.68,5.68,0,0,0,5.56-3.56A6,6,0,0,1,370.28,281.15Z" style="fill:#407BFF"/><path d="M368.43,264.23c.48-1.71,5.34,2.09,8.06-3a5.62,5.62,0,0,1-5.73,5S368,265.72,368.43,264.23Z" style="fill:#407BFF"/></g><g id="freepik--Liver--inject-471"><path d="M104.55,280.74s1,1.44,2-.5,2.62-4.05,4.56-4.4-.59-4.72-.59-4.72l-6.76,5.74Z" style="fill:#407BFF"/><path d="M104.55,280.74s1,1.44,2-.5,2.62-4.05,4.56-4.4-.59-4.72-.59-4.72l-6.76,5.74Z" style="opacity:0.30000000000000004"/><path d="M109.37,273.65s-1.78,3.38,1,3.21,4.22-3.63,4.22-3.63Z" style="fill:#407BFF"/><path d="M117,271.62s-2.2,3.8-6.42,3-4.73,6.08-6,6.08-4.81-10.89-1.35-18.58,13.09-7.43,19.09-5.65l3.71.59s14.7-.93,14.86,1.86-1.94,1.35-4.89,5-12.25,6.84-12.25,6.84S120.94,275.59,117,271.62Z" style="fill:#407BFF"/><path d="M117,271.62s-2.2,3.8-6.42,3-4.73,6.08-6,6.08-4.81-10.89-1.35-18.58,13.09-7.43,19.09-5.65l3.71.59s14.7-.93,14.86,1.86-1.94,1.35-4.89,5-12.25,6.84-12.25,6.84S120.94,275.59,117,271.62Z" style="opacity:0.2"/><path d="M116.29,274v-3.55s-1.45-12.78,7-13.78c0,0,1.18-.37,1,.16a7.69,7.69,0,0,0-5.85,4.5c-2,4.2-.67,11.65-.67,11.65S116.59,275.13,116.29,274Z" style="fill:#407BFF"/><path d="M121.3,300.35a8.31,8.31,0,0,1-4.16-1.11l-20.5-11.83a8.33,8.33,0,0,1-4.16-7.21V256.53a8.33,8.33,0,0,1,4.16-7.2l20.5-11.84a8.35,8.35,0,0,1,8.32,0L146,249.33a8.33,8.33,0,0,1,4.16,7.2V280.2a8.33,8.33,0,0,1-4.16,7.21l-20.5,11.83A8.31,8.31,0,0,1,121.3,300.35Zm0-60.47a4.81,4.81,0,0,0-2.41.64l-20.5,11.84A4.81,4.81,0,0,0,96,256.53V280.2a4.81,4.81,0,0,0,2.41,4.17l20.5,11.84a4.82,4.82,0,0,0,4.82,0l20.5-11.84a4.81,4.81,0,0,0,2.41-4.17V256.53a4.81,4.81,0,0,0-2.41-4.17l-20.5-11.84A4.81,4.81,0,0,0,121.3,239.88Z" style="fill:#407BFF"/><g style="opacity:0.5"><path d="M121.3,300.35a8.31,8.31,0,0,1-4.16-1.11l-20.5-11.83a8.33,8.33,0,0,1-4.16-7.21V256.53a8.33,8.33,0,0,1,4.16-7.2l20.5-11.84a8.35,8.35,0,0,1,8.32,0L146,249.33a8.33,8.33,0,0,1,4.16,7.2V280.2a8.33,8.33,0,0,1-4.16,7.21l-20.5,11.83A8.31,8.31,0,0,1,121.3,300.35Zm0-60.47a4.81,4.81,0,0,0-2.41.64l-20.5,11.84A4.81,4.81,0,0,0,96,256.53V280.2a4.81,4.81,0,0,0,2.41,4.17l20.5,11.84a4.82,4.82,0,0,0,4.82,0l20.5-11.84a4.81,4.81,0,0,0,2.41-4.17V256.53a4.81,4.81,0,0,0-2.41-4.17l-20.5-11.84A4.81,4.81,0,0,0,121.3,239.88Z" style="fill:#fff"/></g><path d="M146,249.33,141,246.47l-2.39,2.66,5.58,3.23a4.81,4.81,0,0,1,2.41,4.17V280.2a4.81,4.81,0,0,1-2.41,4.17l-20.5,11.84a4.82,4.82,0,0,1-4.82,0L104,287.6l-2.39,2.66,15.56,9a8.35,8.35,0,0,0,8.32,0L146,287.41a8.33,8.33,0,0,0,4.16-7.21V256.53A8.33,8.33,0,0,0,146,249.33Z" style="opacity:0.1"/></g><g id="freepik--Stomach--inject-471"><path d="M378.7,223.66a8.31,8.31,0,0,1-4.16-1.11L354,210.71a8.33,8.33,0,0,1-4.16-7.2V179.83a8.33,8.33,0,0,1,4.16-7.2l20.5-11.84a8.35,8.35,0,0,1,8.32,0l20.5,11.84a8.33,8.33,0,0,1,4.16,7.2v23.68a8.33,8.33,0,0,1-4.16,7.2l-20.5,11.84A8.31,8.31,0,0,1,378.7,223.66Zm0-60.48a4.94,4.94,0,0,0-2.41.64l-20.5,11.84a4.83,4.83,0,0,0-2.41,4.17v23.68a4.83,4.83,0,0,0,2.41,4.17l20.5,11.84a4.82,4.82,0,0,0,4.82,0l20.5-11.84a4.83,4.83,0,0,0,2.41-4.17V179.83a4.83,4.83,0,0,0-2.41-4.17l-20.5-11.84A4.91,4.91,0,0,0,378.7,163.18Z" style="fill:#407BFF"/><g style="opacity:0.5"><path d="M378.7,223.66a8.31,8.31,0,0,1-4.16-1.11L354,210.71a8.33,8.33,0,0,1-4.16-7.2V179.83a8.33,8.33,0,0,1,4.16-7.2l20.5-11.84a8.35,8.35,0,0,1,8.32,0l20.5,11.84a8.33,8.33,0,0,1,4.16,7.2v23.68a8.33,8.33,0,0,1-4.16,7.2l-20.5,11.84A8.31,8.31,0,0,1,378.7,223.66Zm0-60.48a4.94,4.94,0,0,0-2.41.64l-20.5,11.84a4.83,4.83,0,0,0-2.41,4.17v23.68a4.83,4.83,0,0,0,2.41,4.17l20.5,11.84a4.82,4.82,0,0,0,4.82,0l20.5-11.84a4.83,4.83,0,0,0,2.41-4.17V179.83a4.83,4.83,0,0,0-2.41-4.17l-20.5-11.84A4.91,4.91,0,0,0,378.7,163.18Z" style="fill:#fff"/></g><path d="M403.36,172.63l-4.94-2.85L396,172.44l5.58,3.22a4.83,4.83,0,0,1,2.41,4.17v23.68a4.83,4.83,0,0,1-2.41,4.17l-20.5,11.84a4.82,4.82,0,0,1-4.82,0l-14.92-8.62L359,213.56l15.56,9a8.35,8.35,0,0,0,8.32,0l20.5-11.84a8.33,8.33,0,0,0,4.16-7.2V179.83A8.33,8.33,0,0,0,403.36,172.63Z" style="opacity:0.1"/><path d="M367.3,208.67v-3.84a4.26,4.26,0,0,1,.08-.8.8.8,0,0,1,1.45-.27c1.38,2.14,5.24,4,10.8,3,13.19-3.42,17.93-17.1,17.93-17.1a10.82,10.82,0,0,0-10.09-15.07,10.15,10.15,0,0,0-5.25,1.52.32.32,0,0,1-.49-.27v-4.41a2.37,2.37,0,0,0-3,0V177a8.5,8.5,0,0,0,.32,2.29c.82,2.9,2.3,11.15-6.91,13.19h0l0,0-.43.21-.32.18a7.76,7.76,0,0,0-3.76,6.09l-1.2.67a4.11,4.11,0,0,0-2.13,3.6v5.39A2.18,2.18,0,0,0,367.3,208.67Z" style="fill:#407BFF"/><g style="opacity:0.30000000000000004"><path d="M395.29,187.64h-.13a.87.87,0,0,1-.72-1,6.69,6.69,0,0,0-.17-2.9,7,7,0,0,0-2.83-3.79.86.86,0,0,1,1-1.42,8.66,8.66,0,0,1,3.52,4.73,8.38,8.38,0,0,1,.22,3.64A.86.86,0,0,1,395.29,187.64Z" style="fill:#fff"/></g><g style="opacity:0.30000000000000004"><path d="M389.75,179a.84.84,0,0,1-.27,0,7.49,7.49,0,0,0-1.38-.33.86.86,0,0,1-.73-1,.84.84,0,0,1,1-.73,9.86,9.86,0,0,1,1.69.39.86.86,0,0,1-.28,1.68Z" style="fill:#fff"/></g><path d="M379.63,206.71a25.33,25.33,0,0,0,14-10c.08-.13,2.72-4.53.39-5.31s-3.3,4.84-10,8.28-12.69-1.29-14.48,1.7,2.4,4.78,2.8,5A13.7,13.7,0,0,0,379.63,206.71Z" style="opacity:0.1"/><path d="M381.73,171.38a2.37,2.37,0,0,0-3,0A2.06,2.06,0,0,0,381.73,171.38Z" style="opacity:0.2"/></g><g id="freepik--Lungs--inject-471"><path d="M121.3,223.66a8.31,8.31,0,0,1-4.16-1.11l-20.5-11.84a8.33,8.33,0,0,1-4.16-7.2V179.83a8.33,8.33,0,0,1,4.16-7.2l20.5-11.84a8.35,8.35,0,0,1,8.32,0L146,172.63a8.33,8.33,0,0,1,4.16,7.2v23.68a8.33,8.33,0,0,1-4.16,7.2l-20.5,11.84A8.31,8.31,0,0,1,121.3,223.66Zm0-60.48a4.91,4.91,0,0,0-2.41.64l-20.5,11.84A4.83,4.83,0,0,0,96,179.83v23.68a4.83,4.83,0,0,0,2.41,4.17l20.5,11.84a4.82,4.82,0,0,0,4.82,0l20.5-11.84a4.83,4.83,0,0,0,2.41-4.17V179.83a4.83,4.83,0,0,0-2.41-4.17l-20.5-11.84A4.91,4.91,0,0,0,121.3,163.18Z" style="fill:#407BFF"/><g style="opacity:0.5"><path d="M121.3,223.66a8.31,8.31,0,0,1-4.16-1.11l-20.5-11.84a8.33,8.33,0,0,1-4.16-7.2V179.83a8.33,8.33,0,0,1,4.16-7.2l20.5-11.84a8.35,8.35,0,0,1,8.32,0L146,172.63a8.33,8.33,0,0,1,4.16,7.2v23.68a8.33,8.33,0,0,1-4.16,7.2l-20.5,11.84A8.31,8.31,0,0,1,121.3,223.66Zm0-60.48a4.91,4.91,0,0,0-2.41.64l-20.5,11.84A4.83,4.83,0,0,0,96,179.83v23.68a4.83,4.83,0,0,0,2.41,4.17l20.5,11.84a4.82,4.82,0,0,0,4.82,0l20.5-11.84a4.83,4.83,0,0,0,2.41-4.17V179.83a4.83,4.83,0,0,0-2.41-4.17l-20.5-11.84A4.91,4.91,0,0,0,121.3,163.18Z" style="fill:#fff"/></g><path d="M146,172.63,141,169.78l-2.39,2.66,5.58,3.22a4.83,4.83,0,0,1,2.41,4.17v23.68a4.83,4.83,0,0,1-2.41,4.17l-20.5,11.84a4.82,4.82,0,0,1-4.82,0L104,210.9l-2.39,2.66,15.56,9a8.35,8.35,0,0,0,8.32,0L146,210.71a8.33,8.33,0,0,0,4.16-7.2V179.83A8.33,8.33,0,0,0,146,172.63Z" style="opacity:0.1"/><path d="M122.85,169.68s-.08,2.22,0,3.66a13.07,13.07,0,0,0,1.61,5.63,14.55,14.55,0,0,0,2.68,3.6l2.28,2.24-2.07,2L125,184.61c-.25-.25-.49-.5-.73-.76a17.55,17.55,0,0,1-3-4.55h-.16a17,17,0,0,1-3,4.55c-.23.26-.47.51-.72.76l-2.28,2.24-2.07-2,2.28-2.24a14.55,14.55,0,0,0,2.68-3.6,13.07,13.07,0,0,0,1.61-5.63c0-1.44,0-3.66,0-3.66A2.28,2.28,0,0,1,122.85,169.68Z" style="fill:#407BFF"/><g style="opacity:0.30000000000000004"><path d="M122.85,169.68s-.08,2.22,0,3.66a13.07,13.07,0,0,0,1.61,5.63,14.55,14.55,0,0,0,2.68,3.6l2.28,2.24-2.07,2L125,184.61c-.25-.25-.49-.5-.73-.76a17.55,17.55,0,0,1-3-4.55h-.16a17,17,0,0,1-3,4.55c-.23.26-.47.51-.72.76l-2.28,2.24-2.07-2,2.28-2.24a14.55,14.55,0,0,0,2.68-3.6,13.07,13.07,0,0,0,1.61-5.63c0-1.44,0-3.66,0-3.66A2.28,2.28,0,0,1,122.85,169.68Z" style="fill:#fff"/></g><path d="M122.85,169.68a2.28,2.28,0,0,0-3.15,0S121.54,171.3,122.85,169.68Z" style="fill:#407BFF"/><path d="M124.61,184.38c.06,0,.06,11.65.06,11.65-.11,4.84,2.53,9.17,7.42,10.62l5.29,1.58c1.56.47,3.59-.79,3.64-2.33V198a36.47,36.47,0,0,0-10.94-26.48c-2-2-5.45-.87-5.52,1.83l.11,6.18Z" style="fill:#407BFF"/><path d="M117.93,179.33l.11-6c-.07-2.7-3.57-3.81-5.52-1.83A36.47,36.47,0,0,0,101.58,198v7.94c0,1.54,2.08,2.8,3.64,2.33l5.29-1.58c4.89-1.45,7.53-5.78,7.42-10.62,0,0,0-11.65.06-11.65Z" style="fill:#407BFF"/><g style="opacity:0.2"><path d="M109.45,194.68a12.39,12.39,0,0,0,8.49-3.87c0-1.23,0-2.49,0-3.57h0s-2.43,4.25-6.75,5-3.42-2.45-4.55-2.45S104.37,194.68,109.45,194.68Z"/><path d="M105.22,208.23l5.29-1.58c4.89-1.45,7.53-5.78,7.42-10.62v-1.58h0a14.54,14.54,0,0,1-8.55,10.19c-7.28,3-7.8-4.5-7.8-4.5v5.76C101.63,207.44,103.66,208.7,105.22,208.23Z"/></g><g style="opacity:0.30000000000000004"><path d="M121.56,178.39a.47.47,0,0,1-.46-.46v-3.44a.46.46,0,0,1,.46-.46.45.45,0,0,1,.45.46v3.44A.46.46,0,0,1,121.56,178.39Z" style="fill:#fff"/></g><g style="opacity:0.30000000000000004"><path d="M121.56,173.37a.47.47,0,0,1-.46-.46v-.81a.46.46,0,0,1,.46-.45.45.45,0,0,1,.45.45v.81A.46.46,0,0,1,121.56,173.37Z" style="fill:#fff"/></g><path d="M130.61,201.07c-4.49-2.23-5.65-8-6-11.21,0,3,0,6.17,0,6.17-.11,4.84,2.53,9.17,7.42,10.62l5.29,1.58c1.56.47,3.59-.79,3.64-2.33V198C141,203.45,136.93,204.2,130.61,201.07Z" style="opacity:0.1"/><g style="opacity:0.2"><path d="M136.32,187a.91.91,0,0,1-.88-.69,22.45,22.45,0,0,0-3.71-7.35.91.91,0,0,1,1.47-1.08,24.37,24.37,0,0,1,4,8,.91.91,0,0,1-.65,1.11Z" style="fill:#fff"/></g><g style="opacity:0.2"><path d="M130.82,177.3a.93.93,0,0,1-.69-.31c-.58-.67-1-1.05-1-1.05a.91.91,0,0,1,1.28-1.3s.43.43,1.06,1.15a.91.91,0,0,1-.08,1.28A.94.94,0,0,1,130.82,177.3Z" style="fill:#fff"/></g></g><g id="freepik--Heart--inject-471"><path d="M348.44,104.46l-2,1-.49-1.29a1,1,0,0,1,.68-1.32,1.06,1.06,0,0,1,1.34.67Z" style="fill:#407BFF"/><path d="M360.23,117.34a8.08,8.08,0,0,0-6.46-3,7.9,7.9,0,0,0-5.53,2.12l-.08,0,1.33-2c1.37-1.67,2.85-1.93,5.4-1.78a24.53,24.53,0,0,1,2.52.28,1.15,1.15,0,0,0,1.31-1,.86.86,0,0,0,0-.16,1.14,1.14,0,0,0-1-1.13c-1.68-.18-4.59-.51-4.91-.59-1.44-.37-2.61-.81-3.08-2.08l-.39-1,.85-.41a1.26,1.26,0,0,0,.58-1.71,1.29,1.29,0,0,0-1.72-.57l-.6.29-2,1-.93.45a10.77,10.77,0,0,0-.35-1,1.29,1.29,0,0,0-1.67-.72,1.26,1.26,0,0,0-.73,1.64c1.54,3.92-1,7.81-1,7.87l-.05.09a2.5,2.5,0,0,1-.73.63,2.12,2.12,0,0,1-.58.25,7.81,7.81,0,0,0-4.21,2.76,13.68,13.68,0,0,0-2.27,7.48c0,6.86,7.12,23.37,14.12,23.37,7.41,0,14.42-16.51,14.42-23.37A13.71,13.71,0,0,0,360.23,117.34Zm-13.15-3.42-.47.58a1.07,1.07,0,0,1-.79.38,1.08,1.08,0,0,1-.4-.06h0a1.17,1.17,0,0,1-.31-.17,1.06,1.06,0,0,1-.3-1.23,12.49,12.49,0,0,0,1.08-4.86l1.39-.68.41,1.24.06.15A4.41,4.41,0,0,1,347.08,113.92Z" style="fill:#407BFF"/><path d="M347.68,109.11l.06.15,0,.08,2.19-1a2.69,2.69,0,0,1-.24-.48l-.39-1-2.06,1Z" style="opacity:0.2"/><path d="M351.16,142.16c-5-.5-5.54-24.39-6.44-19.15s1.91,17.34-2,17.34c-3.39,0-6.17-5.53-6.88-7.07,2.57,7.11,7.44,14.92,12.26,14.92,7.41,0,14.42-16.51,14.42-23.37C361.54,132.49,356.2,142.66,351.16,142.16Z" style="opacity:0.1"/><path d="M346.47,105.43l2-1-.44-1a.21.21,0,0,0,0-.07l-1.92.91Z" style="opacity:0.2"/><path d="M340.24,117.08a5.71,5.71,0,0,1,4.35,2.84.46.46,0,0,0,.87-.18c.09-2.27-.57-5.39-5.3-3.54A.46.46,0,0,0,340.24,117.08Z" style="fill:#fff;opacity:0.2"/><g style="opacity:0.2"><path d="M358.72,124.17a.9.9,0,0,1-.9-.84c-.15-2-.79-3.34-1.9-4a.91.91,0,1,1,1-1.53c1.62,1,2.54,2.85,2.74,5.43a.9.9,0,0,1-.84,1Z" style="fill:#fff"/></g><g style="opacity:0.2"><path d="M352.93,118.82a.91.91,0,0,1-.19-1.8,6.16,6.16,0,0,1,1.48-.08.89.89,0,0,1,.85,1,.91.91,0,0,1-1,.86,3.85,3.85,0,0,0-1,0Z" style="fill:#fff"/></g><path d="M348.23,158.16a8.31,8.31,0,0,1-4.16-1.11l-20.5-11.84a8.33,8.33,0,0,1-4.16-7.2V114.34a8.33,8.33,0,0,1,4.16-7.21l20.5-11.83a8.35,8.35,0,0,1,8.32,0l20.5,11.83a8.33,8.33,0,0,1,4.16,7.21V138a8.33,8.33,0,0,1-4.16,7.2l-20.5,11.84A8.34,8.34,0,0,1,348.23,158.16Zm0-60.48a4.82,4.82,0,0,0-2.41.65l-20.5,11.83a4.83,4.83,0,0,0-2.41,4.18V138a4.82,4.82,0,0,0,2.41,4.17L345.82,154a4.82,4.82,0,0,0,4.82,0l20.5-11.84a4.82,4.82,0,0,0,2.41-4.17V114.34a4.83,4.83,0,0,0-2.41-4.18l-20.5-11.83A4.84,4.84,0,0,0,348.23,97.68Z" style="fill:#407BFF"/><g style="opacity:0.5"><path d="M348.23,158.16a8.31,8.31,0,0,1-4.16-1.11l-20.5-11.84a8.33,8.33,0,0,1-4.16-7.2V114.34a8.33,8.33,0,0,1,4.16-7.21l20.5-11.83a8.35,8.35,0,0,1,8.32,0l20.5,11.83a8.33,8.33,0,0,1,4.16,7.21V138a8.33,8.33,0,0,1-4.16,7.2l-20.5,11.84A8.34,8.34,0,0,1,348.23,158.16Zm0-60.48a4.82,4.82,0,0,0-2.41.65l-20.5,11.83a4.83,4.83,0,0,0-2.41,4.18V138a4.82,4.82,0,0,0,2.41,4.17L345.82,154a4.82,4.82,0,0,0,4.82,0l20.5-11.84a4.82,4.82,0,0,0,2.41-4.17V114.34a4.83,4.83,0,0,0-2.41-4.18l-20.5-11.83A4.84,4.84,0,0,0,348.23,97.68Z" style="fill:#fff"/></g><path d="M372.89,107.13,368,104.28l-2.39,2.66,5.58,3.22a4.83,4.83,0,0,1,2.41,4.18V138a4.82,4.82,0,0,1-2.41,4.17L350.64,154a4.82,4.82,0,0,1-4.82,0l-14.92-8.61-2.39,2.65,15.56,9a8.35,8.35,0,0,0,8.32,0l20.5-11.84a8.33,8.33,0,0,0,4.16-7.2V114.34A8.33,8.33,0,0,0,372.89,107.13Z" style="opacity:0.1"/></g><g id="freepik--Brain--inject-471"><path d="M152.58,158.16a8.3,8.3,0,0,1-4.15-1.11l-20.51-11.84a8.35,8.35,0,0,1-4.16-7.2V114.34a8.35,8.35,0,0,1,4.16-7.21L148.43,95.3a8.33,8.33,0,0,1,8.31,0l20.51,11.83a8.34,8.34,0,0,1,4.15,7.21V138a8.34,8.34,0,0,1-4.15,7.2l-20.51,11.84A8.31,8.31,0,0,1,152.58,158.16Zm0-60.48a4.78,4.78,0,0,0-2.4.65l-20.51,11.83a4.85,4.85,0,0,0-2.41,4.18V138a4.84,4.84,0,0,0,2.41,4.17L150.18,154a4.81,4.81,0,0,0,4.81,0l20.51-11.84a4.83,4.83,0,0,0,2.4-4.17V114.34a4.85,4.85,0,0,0-2.4-4.18L155,98.33A4.79,4.79,0,0,0,152.58,97.68Z" style="fill:#407BFF"/><g style="opacity:0.5"><path d="M152.58,158.16a8.3,8.3,0,0,1-4.15-1.11l-20.51-11.84a8.35,8.35,0,0,1-4.16-7.2V114.34a8.35,8.35,0,0,1,4.16-7.21L148.43,95.3a8.33,8.33,0,0,1,8.31,0l20.51,11.83a8.34,8.34,0,0,1,4.15,7.21V138a8.34,8.34,0,0,1-4.15,7.2l-20.51,11.84A8.31,8.31,0,0,1,152.58,158.16Zm0-60.48a4.78,4.78,0,0,0-2.4.65l-20.51,11.83a4.85,4.85,0,0,0-2.41,4.18V138a4.84,4.84,0,0,0,2.41,4.17L150.18,154a4.81,4.81,0,0,0,4.81,0l20.51-11.84a4.83,4.83,0,0,0,2.4-4.17V114.34a4.85,4.85,0,0,0-2.4-4.18L155,98.33A4.79,4.79,0,0,0,152.58,97.68Z" style="fill:#fff"/></g><path d="M177.25,107.13l-4.94-2.85-2.4,2.66,5.59,3.22a4.85,4.85,0,0,1,2.4,4.18V138a4.83,4.83,0,0,1-2.4,4.17L155,154a4.81,4.81,0,0,1-4.81,0l-14.92-8.61-2.4,2.65,15.57,9a8.33,8.33,0,0,0,8.31,0l20.51-11.84a8.34,8.34,0,0,0,4.15-7.2V114.34A8.34,8.34,0,0,0,177.25,107.13Z" style="opacity:0.1"/><path d="M158.35,142.73l-.58-4.64-.07,0-.19,0-.13,0-.22-.06c-.3-.09-.6-.18-.89-.29l-.29-.1a12.85,12.85,0,0,1-1.2-.53,3.18,3.18,0,0,1-.32-.16c-.22-.12-.44-.24-.65-.37l-.31-.19-.32-.2-.3-.21-.25-.18-.33-.26-.29-.23a14.18,14.18,0,0,1-1.57-1.53l-.46-.42,5.86,10.33a1.33,1.33,0,0,0,1.17.67A1.35,1.35,0,0,0,158.35,142.73Z" style="fill:#407BFF"/><path d="M158.1,140.77l-.33-2.68-.07,0-.19,0-.13,0-.22-.06c-.3-.09-.6-.18-.89-.29l-.29-.1a12.85,12.85,0,0,1-1.2-.53,3.18,3.18,0,0,1-.32-.16c-.22-.12-.44-.24-.65-.37l-.31-.19-.32-.2-.3-.21-.25-.18-.33-.26-.29-.23a14.18,14.18,0,0,1-1.57-1.53l-.46-.42,3,5.22A11.69,11.69,0,0,0,158.1,140.77Z" style="opacity:0.1"/><path d="M172.55,126.22a20.69,20.69,0,0,0-.84-3.45,21.58,21.58,0,0,0-36.92-7h0c-.22.26-.44.53-.64.8h0a8.58,8.58,0,0,0,7,13.54l.75,0a5.6,5.6,0,0,0,5.52,4.65,5.38,5.38,0,0,0,1.62-.24,2.5,2.5,0,0,1,2.58.78,12,12,0,0,0,21-7.91A10.32,10.32,0,0,0,172.55,126.22Z" style="fill:#407BFF"/><g style="opacity:0.5"><path d="M172.55,126.22a20.69,20.69,0,0,0-.84-3.45,21.58,21.58,0,0,0-36.92-7h0c-.22.26-.44.53-.64.8h0a8.58,8.58,0,0,0,7,13.54l.75,0a5.6,5.6,0,0,0,5.52,4.65,5.38,5.38,0,0,0,1.62-.24,2.5,2.5,0,0,1,2.58.78,12,12,0,0,0,21-7.91A10.32,10.32,0,0,0,172.55,126.22Z" style="fill:#fff"/></g><g style="opacity:0.2"><path d="M166,135.4a14.23,14.23,0,0,0-8.54-2.87h-3.53a.62.62,0,0,0-.62.62.61.61,0,0,0,.62.61h3.53a12.89,12.89,0,0,1,7.76,2.6l.58.5a.59.59,0,0,0,.41.16.62.62,0,0,0,.4-1.08Z"/><path d="M158.51,123.12l.34,0h0l1.52,1.17a.6.6,0,0,0,.38.13.62.62,0,0,0,.49-.24.64.64,0,0,0-.11-.87l-1.36-1,1.32-1.33.47-.48a.6.6,0,0,0,0-.85.61.61,0,0,0-.86,0l-.43.44c-.93.93-1.46,1.47-1.74,1.8-1.42-.09-2.72-.1-3.91-.06a5.72,5.72,0,0,0,.26-2.29.6.6,0,0,0-.67-.55.62.62,0,0,0-.56.67,4.58,4.58,0,0,1-.38,2.25,21.36,21.36,0,0,0-4.25.73,10.67,10.67,0,0,1-1.72-4.65.62.62,0,0,0-1.23.14A12,12,0,0,0,147.8,123a10.79,10.79,0,0,0-3.63,2.16,7.49,7.49,0,0,0-4-2.84.62.62,0,1,0-.33,1.19,6.19,6.19,0,0,1,3.49,2.57,7.92,7.92,0,0,0-1.35,2.52.61.61,0,0,0,.41.77l.18,0a.62.62,0,0,0,.59-.43C145,122.9,154.52,122.86,158.51,123.12Z"/><path d="M147.42,110.13c1.47.41,2.29,1.19,2.44,2.34,0,0,0,.07,0,.11a12.42,12.42,0,0,0-.13,5.71,1,1,0,0,0,0,.15.6.6,0,0,0,.21.46.62.62,0,0,0,.4.15.61.61,0,0,0,.47-.21c.2-.23.16-.44.11-.76-.55-3.17-.47-7.1,3-7.83a.62.62,0,0,0-.25-1.21,4.84,4.84,0,0,0-3.08,2,4.46,4.46,0,0,0-2.92-2.06.61.61,0,1,0-.32,1.18Z"/><path d="M167.66,127.32a7.7,7.7,0,0,0,1-4.86,7.8,7.8,0,0,0-5.33-6.33.61.61,0,0,0-.37,1.17,6.47,6.47,0,0,1,1.55,11.63.61.61,0,0,0-.19.85.62.62,0,0,0,.52.28.66.66,0,0,0,.33-.09,7.44,7.44,0,0,0,1.81-1.64,3.86,3.86,0,0,1,1.15,4.65.63.63,0,0,0,.27.83.67.67,0,0,0,.28.06.62.62,0,0,0,.55-.33A5.08,5.08,0,0,0,167.66,127.32Z"/><path d="M140.11,115.68a4.62,4.62,0,0,1,4-.63.63.63,0,0,0,.78-.4.62.62,0,0,0-.4-.77,5.76,5.76,0,0,0-7.47,4.66,3.51,3.51,0,0,0-3.93,3.49.61.61,0,0,0,.61.62h0a.61.61,0,0,0,.61-.62,2.3,2.3,0,0,1,3.05-2.16.63.63,0,0,0,.82-.57A4.63,4.63,0,0,1,140.11,115.68Z"/></g></g><g id="freepik--Character--inject-471"><path d="M256.18,126.35s-1,8.5,1.46,12.22l18.78,4.34s8.84,2.91,10,22c.35,5.63,6.34,21.66,6.34,21.66s4.48,3.42,9,24.3c1.13,5.19,2.26,11.46,3.32,19,0,0,6.21,4.87,7.33,7.66.78,1.93,1.38,5.77,0,7.34-2.16,2.45-8.34,3.57-11,1.66-3.1-2.23-3.41-13.83-3.41-13.83s-15.92-31.83-17.92-39.83c-1.35-5.39-4.2-15.59-5.92-21.69l-2,46.1a4.43,4.43,0,0,0,.41,2.21c1.57,3.41,4.34,18.24.22,78.29a137.84,137.84,0,0,0,.62,16.5c.7,7.74,2.38,16.5,1.38,31s-6.5,48.92-6.5,48.92,9.91,12.33,9.08,18.83-12.58,5.25-14.33,1.5-4.25-19-4.25-19-5.75-53.5-1.75-76c.87-4.93-.86-15-1.5-20-1.27-9.69-5.09-27.25-5.09-38.75v-134Z" style="fill:#263238"/><path d="M256.18,126.35s-1,8.5,1.46,12.22l18.78,4.34s8.84,2.91,10,22c.35,5.63,6.34,21.66,6.34,21.66s4.48,3.42,9,24.3c1.13,5.19,2.26,11.46,3.32,19,0,0,6.21,4.87,7.33,7.66.78,1.93,1.38,5.77,0,7.34-2.16,2.45-8.34,3.57-11,1.66-3.1-2.23-3.41-13.83-3.41-13.83s-15.92-31.83-17.92-39.83c-1.35-5.39-4.2-15.59-5.92-21.69l-2,46.1a4.43,4.43,0,0,0,.41,2.21c1.57,3.41,4.34,18.24.22,78.29a137.84,137.84,0,0,0,.62,16.5c.7,7.74,2.38,16.5,1.38,31s-6.5,48.92-6.5,48.92,9.91,12.33,9.08,18.83-12.58,5.25-14.33,1.5-4.25-19-4.25-19-5.75-53.5-1.75-76c.87-4.93-.86-15-1.5-20-1.27-9.69-5.09-27.25-5.09-38.75v-134Z" style="fill:#fff;opacity:0.2"/><path d="M261.77,114.87c.1-.17.17-.27.17-.27s1.66-.8,2.83,1.28c1.44,2.55-.75,8.36-4.19,7.05,0,0,0,0,0,0A47.85,47.85,0,0,0,261.77,114.87Z" style="fill:#263238"/><path d="M261.77,114.87c.1-.17.17-.27.17-.27s1.66-.8,2.83,1.28c1.44,2.55-.75,8.36-4.19,7.05,0,0,0,0,0,0A47.85,47.85,0,0,0,261.77,114.87Z" style="fill:#fff;opacity:0.2"/><path d="M250,96.3h0c7.51,0,13.22,5.54,12.74,12.38-.13,1.88-.59,8.62-.72,10.5-.47,6.84-5.86,12.38-12,12.38h0Z" style="fill:#263238"/><path d="M250,96.3h0c7.51,0,13.22,5.54,12.74,12.38-.13,1.88-.59,8.62-.72,10.5-.47,6.84-5.86,12.38-12,12.38h0Z" style="fill:#fff;opacity:0.2"/><path d="M250.05,113.87c0,9.71.66,17.57,0,17.57s-1.19-7.86-1.19-17.57.54-17.57,1.19-17.57S250.05,104.17,250.05,113.87Z" style="fill:#407BFF"/><path d="M270.91,229c-2-2.25-3.87,1.5-3.87,1.5-3.63-1.46-3.25-11.54-3.25-11.54l-2.28-5.38-12.35,6.3-1,9.5s-.83,10.52,5.38,10.52,4.91-9.4,4.91-9.4c7.16,2.43,6.85,22.56,6.85,22.56l-1.6,50.16s-3.38,1.62-4.38,4.62,1.13,7.13,1.13,7.13l10-1.5c2.66-5.5-.07-8.75-.07-8.75l1-65.13C275,233.31,272.91,231.26,270.91,229Zm-17.41,8.16c-3.88-1,1.91-6.2,1.91-6.2C256,235.89,255.29,237.64,253.5,237.17Z" style="fill:#263238"/><path d="M270.91,229c-2-2.25-3.87,1.5-3.87,1.5-3.63-1.46-3.25-11.54-3.25-11.54l-2.28-5.38-12.35,6.3-1,9.5s-.83,10.52,5.38,10.52,4.91-9.4,4.91-9.4c7.16,2.43,6.85,22.56,6.85,22.56l-1.6,50.16s-3.38,1.62-4.38,4.62,1.13,7.13,1.13,7.13l10-1.5c2.66-5.5-.07-8.75-.07-8.75l1-65.13C275,233.31,272.91,231.26,270.91,229Zm-17.41,8.16c-3.88-1,1.91-6.2,1.91-6.2C256,235.89,255.29,237.64,253.5,237.17Z" style="fill:#fff;opacity:0.5"/><path d="M271.46,315.74l-11.16,1.5a15.52,15.52,0,0,0,2.44,10v59.67c-2.72,2.5-2.44,8.26-2.44,8.26,4.5-3.4,6.81-1.46,6.81-1.46l3.52-65.47C272.46,323.91,271.46,315.74,271.46,315.74Zm-5.68,71.87-1-.4,2.37-59,1.67-2.67Z" style="fill:#263238"/><path d="M271.46,315.74l-11.16,1.5a15.52,15.52,0,0,0,2.44,10v59.67c-2.72,2.5-2.44,8.26-2.44,8.26,4.5-3.4,6.81-1.46,6.81-1.46l3.52-65.47C272.46,323.91,271.46,315.74,271.46,315.74Zm-5.68,71.87-1-.4,2.37-59,1.67-2.67Z" style="fill:#fff;opacity:0.5"/><path d="M263.28,408.52c-1.12-3.21-3.3-11.2.62-13.58s8,7.63,9.46,9.88S264.57,412.21,263.28,408.52Z" style="fill:#263238"/><path d="M264.61,413.57c-.33-.85-.85-3.05.49-3s1.93,1.74,1.93,1.74.14-1.78,1.21-2,2.37,1,2.37,1-.13-2.24,1.17-2.7a1.89,1.89,0,0,1,2.08.55s-.56-2.16.19-2.25,3.06,3.2,2.32,3.87-1.59-.52-1.59-.52,1.14,2.32.5,2.71c-.87.53-2.15-1.81-2.15-1.81s1.18,2.85.3,3.31-2.3-2-2.3-2,.77,2.74-.54,3.15-2.67-2.52-2.67-2.52.36,2.69-.7,3.18S265.34,415.48,264.61,413.57Z" style="fill:#263238"/><g style="opacity:0.5"><path d="M263.28,408.52c-1.12-3.21-3.3-11.2.62-13.58s8,7.63,9.46,9.88S264.57,412.21,263.28,408.52Z" style="fill:#fff"/><path d="M264.61,413.57c-.33-.85-.85-3.05.49-3s1.93,1.74,1.93,1.74.14-1.78,1.21-2,2.37,1,2.37,1-.13-2.24,1.17-2.7a1.89,1.89,0,0,1,2.08.55s-.56-2.16.19-2.25,3.06,3.2,2.32,3.87-1.59-.52-1.59-.52,1.14,2.32.5,2.71c-.87.53-2.15-1.81-2.15-1.81s1.18,2.85.3,3.31-2.3-2-2.3-2,.77,2.74-.54,3.15-2.67-2.52-2.67-2.52.36,2.69-.7,3.18S265.34,415.48,264.61,413.57Z" style="fill:#fff"/></g><path d="M264.74,155.87s6.75-12.3,11.13-11.89-7.54,18.62-7.54,18.62Z" style="fill:#263238"/><path d="M264.74,155.87s6.75-12.3,11.13-11.89-7.54,18.62-7.54,18.62Z" style="fill:#fff;opacity:0.4"/><polygon points="255.12 131.51 255.12 130.54 253.83 130.03 253.83 128.07 249.2 128.07 249.2 199.79 253.83 199.79 253.83 188.63 255.12 188.12 255.12 187.15 253.83 186.64 253.83 184.19 255.12 183.68 255.12 182.71 253.83 182.2 253.83 179.75 255.12 179.25 255.12 178.27 253.83 177.77 253.83 140.89 255.12 140.38 255.12 139.41 253.83 138.91 253.83 136.45 255.12 135.95 255.12 134.98 253.83 134.47 253.83 132.02 255.12 131.51" style="fill:#263238"/><polygon points="255.12 131.51 255.12 130.54 253.83 130.03 253.83 128.07 249.2 128.07 249.2 199.79 253.83 199.79 253.83 188.63 255.12 188.12 255.12 187.15 253.83 186.64 253.83 184.19 255.12 183.68 255.12 182.71 253.83 182.2 253.83 179.75 255.12 179.25 255.12 178.27 253.83 177.77 253.83 140.89 255.12 140.38 255.12 139.41 253.83 138.91 253.83 136.45 255.12 135.95 255.12 134.98 253.83 134.47 253.83 132.02 255.12 131.51" style="fill:#fff;opacity:0.4"/><path d="M238.29,221.79s4.5,4.32,12.72,2.27l8.75-2.27,5.39-3.77,1.94-4.94,1.19-7.47V195.5l-4.42.95-7.77,2.05L251,199.79h-6.78l-6.91-2.58-3.45.85v8.46l.54,10.33Z" style="fill:#407BFF"/><path d="M238.29,221.79s4.5,4.32,12.72,2.27l8.75-2.27,5.39-3.77,1.94-4.94,1.19-7.47V195.5l-4.42.95-7.77,2.05L251,199.79h-6.78l-6.91-2.58-3.45.85v8.46l.54,10.33Z" style="fill:#fff;opacity:0.6000000000000001"/><g style="opacity:0.30000000000000004"><path d="M264.14,210.16a7.71,7.71,0,0,0-7.45,1.4,5.44,5.44,0,0,0-3.71-.79,6.78,6.78,0,0,0-1.42-1.73c.52-.46,1.22-1.61.5-4.32a.32.32,0,1,0-.62.17c.7,2.65-.08,3.5-.41,3.74a10,10,0,0,0-3.84-1.64l-.22,0-.11.19c-.85,1.48-1.8,2.25-2.82,2.28H244c-1.63,0-3-1.84-3.31-2.23a9.85,9.85,0,0,0-.77-3.76.32.32,0,0,0-.45-.1.33.33,0,0,0-.1.45,9.48,9.48,0,0,1,.68,3.52v.1l0,.07c.07.11,1.77,2.7,4,2.59,1.21,0,2.3-.85,3.24-2.4.83.18,3.9,1,5.21,3.58l.11.21.23,0s2.51-.37,3.6.79l.23.25.24-.25a7,7,0,0,1,7-1.45.32.32,0,0,0,.4-.21A.33.33,0,0,0,264.14,210.16Z"/><path d="M248.71,216.67a2.29,2.29,0,0,0,1.25-1.51.32.32,0,0,0-.23-.39.33.33,0,0,0-.4.23,2.05,2.05,0,0,1-1.88,1.37h0a23,23,0,0,1-3.42,0,.31.31,0,0,0-.35.29.33.33,0,0,0,.3.35,21.57,21.57,0,0,0,3.51,0h0c1-.08,2.29,1.32,2.69,1.89a.3.3,0,0,0,.26.13.27.27,0,0,0,.19-.06.32.32,0,0,0,.08-.45A6.76,6.76,0,0,0,248.71,216.67Z"/><path d="M258.14,208.08a.32.32,0,0,0,.28.36h0a.32.32,0,0,0,.32-.28,8.22,8.22,0,0,0-.32-3.77,5,5,0,0,1,3.83-1.05.34.34,0,0,0,.38-.27.32.32,0,0,0-.27-.37,5.72,5.72,0,0,0-4.18,1.06,7.83,7.83,0,0,0-3.25-3.62.33.33,0,0,0-.44.14.33.33,0,0,0,.15.44A7.14,7.14,0,0,1,258.14,208.08Z"/><path d="M268.56,205.44a.33.33,0,0,0-.45-.1,7.39,7.39,0,0,1-5.66.62.31.31,0,0,0-.41.2.32.32,0,0,0,.2.41,8.26,8.26,0,0,0,2.4.35,7.31,7.31,0,0,0,3.81-1A.34.34,0,0,0,268.56,205.44Z"/><path d="M243.18,206.06a.32.32,0,0,0,.27.36h.05a.33.33,0,0,0,.32-.28c.5-3.59-2.55-6.78-2.68-6.91a.32.32,0,1,0-.46.45S243.63,202.78,243.18,206.06Z"/><path d="M256.81,215.37a1.63,1.63,0,0,0-.67-.63,5.62,5.62,0,0,0-3.52-.11,2.21,2.21,0,0,0-1.51-2.52c-2.56-.91-5.09.57-5.72,1-4.29-1.52-7.89,2.4-8,2.57a.32.32,0,0,0,0,.46.32.32,0,0,0,.45,0s3.54-3.87,7.49-2.35l.17.07.14-.11s2.7-1.92,5.27-1a1.71,1.71,0,0,1,1,2.26l-.2.6.6-.19c.66-.2,2.57-.61,3.54-.09a1.08,1.08,0,0,1,.54.68l.14.49.39-.34c.63-.55,2.54-1.86,3.77-1.3a.31.31,0,0,0,.43-.16.32.32,0,0,0-.15-.43C259.46,213.56,257.58,214.79,256.81,215.37Z"/><path d="M245.19,220.29a5.59,5.59,0,0,0,.71-.52.33.33,0,0,0,0-.46.32.32,0,0,0-.45,0c-2.69,2.41-6.82.7-6.86.68a.33.33,0,0,0-.43.17.33.33,0,0,0,.18.43,9.71,9.71,0,0,0,3.44.67,7,7,0,0,0,2.25-.37A3.53,3.53,0,0,1,247,222a.31.31,0,0,0,.26.14.35.35,0,0,0,.19-.06.33.33,0,0,0,.07-.46A3.52,3.52,0,0,0,245.19,220.29Z"/></g><path d="M271.61,199.79a2.38,2.38,0,0,0-1-1.86,2.85,2.85,0,0,0,1.59-2.43c0-1.65-1.7-3-3.79-3s-3.57,1.2-3.76,2.71a4.59,4.59,0,0,0-6.47,1.39,3,3,0,0,0-5.27,1.59,3,3,0,0,0-4.58.2,3,3,0,0,0-2.82-2,3,3,0,0,0-2.41,1.24,3,3,0,0,0-2.89-2.23,2.94,2.94,0,0,0-1.93.73,4.18,4.18,0,0,0-3.73-2c-2.25,0-4.08,1.48-4.08,3.32a2.85,2.85,0,0,0,.61,1.73,3.3,3.3,0,0,0,.08,5.32,3.28,3.28,0,0,0-.69,2,3.32,3.32,0,0,0,1.64,2.86,3.31,3.31,0,0,0,1.19,5.19,3.3,3.3,0,0,0,.62,5.64,3.49,3.49,0,0,0-.82,2.25,3.56,3.56,0,1,0,4.88-3.3,3.3,3.3,0,0,0-1.35-5,3.3,3.3,0,0,0-.32-5.49,3.29,3.29,0,0,0-.59-4.84,3.29,3.29,0,0,0,.7-2,3.41,3.41,0,0,0-.27-1.31,4.15,4.15,0,0,0,1.39-.8,3,3,0,0,0,5.09.44,3,3,0,0,0,5.26,1,3,3,0,0,0,5.78-.68,3,3,0,0,0,5-1,4.16,4.16,0,0,0,3.68.85,3.87,3.87,0,0,0,3.23-2.9,3.86,3.86,0,0,0,.6.44,2.36,2.36,0,0,0-1,1.86,2.5,2.5,0,0,0,1.47,2.17,2.61,2.61,0,0,0,.23,4.06,2,2,0,0,0-1.08,1.71,1.93,1.93,0,0,0,.76,1.49,2.63,2.63,0,0,0-1.38,2.3,2.59,2.59,0,0,0,.57,1.62,3.23,3.23,0,0,0-2.58,3.16,2.51,2.51,0,0,0,.06.55h-.06a3.22,3.22,0,0,0-3.22,3.22c0,.09,0,.18,0,.27a3.51,3.51,0,0,0-2.57-.41,3.45,3.45,0,0,0-2.3,1.55,3.46,3.46,0,0,0-2.27-1.43c-1.73-.33-3.36.54-3.62,1.94a2.28,2.28,0,0,0,.34,1.64,3.2,3.2,0,0,0,.62,5.21,3.31,3.31,0,0,0-1,2.66c.11,2.91,2.3,3.45,2.55,5.07h1.16a4.48,4.48,0,0,1,1.36-2.48c1-1.1,1.24-4.2-.57-5.52A3.21,3.21,0,0,0,255,226a3.16,3.16,0,0,0-.35-1.44,2.32,2.32,0,0,0,.6-.65,3.23,3.23,0,0,0,3.28,1.06,3.15,3.15,0,0,0,2.62-2.5,3.18,3.18,0,0,0,2.1.8,3.22,3.22,0,0,0,3.22-3.22,3.31,3.31,0,0,0-.05-.55h.05a3.22,3.22,0,0,0,2.26-5.52,2.62,2.62,0,0,0,1.78-2.48,2.59,2.59,0,0,0-.84-1.91,2.12,2.12,0,0,0,1.44-1.88A2,2,0,0,0,270,206a2.61,2.61,0,0,0,.2-4.08A2.48,2.48,0,0,0,271.61,199.79Z" style="fill:#407BFF"/><path d="M271.61,199.79a2.38,2.38,0,0,0-1-1.86,2.85,2.85,0,0,0,1.59-2.43c0-1.65-1.7-3-3.79-3s-3.57,1.2-3.76,2.71a4.59,4.59,0,0,0-6.47,1.39,3,3,0,0,0-5.27,1.59,3,3,0,0,0-4.58.2,3,3,0,0,0-2.82-2,3,3,0,0,0-2.41,1.24,3,3,0,0,0-2.89-2.23,2.94,2.94,0,0,0-1.93.73,4.18,4.18,0,0,0-3.73-2c-2.25,0-4.08,1.48-4.08,3.32a2.85,2.85,0,0,0,.61,1.73,3.3,3.3,0,0,0,.08,5.32,3.28,3.28,0,0,0-.69,2,3.32,3.32,0,0,0,1.64,2.86,3.31,3.31,0,0,0,1.19,5.19,3.3,3.3,0,0,0,.62,5.64,3.49,3.49,0,0,0-.82,2.25,3.56,3.56,0,1,0,4.88-3.3,3.3,3.3,0,0,0-1.35-5,3.3,3.3,0,0,0-.32-5.49,3.29,3.29,0,0,0-.59-4.84,3.29,3.29,0,0,0,.7-2,3.41,3.41,0,0,0-.27-1.31,4.15,4.15,0,0,0,1.39-.8,3,3,0,0,0,5.09.44,3,3,0,0,0,5.26,1,3,3,0,0,0,5.78-.68,3,3,0,0,0,5-1,4.16,4.16,0,0,0,3.68.85,3.87,3.87,0,0,0,3.23-2.9,3.86,3.86,0,0,0,.6.44,2.36,2.36,0,0,0-1,1.86,2.5,2.5,0,0,0,1.47,2.17,2.61,2.61,0,0,0,.23,4.06,2,2,0,0,0-1.08,1.71,1.93,1.93,0,0,0,.76,1.49,2.63,2.63,0,0,0-1.38,2.3,2.59,2.59,0,0,0,.57,1.62,3.23,3.23,0,0,0-2.58,3.16,2.51,2.51,0,0,0,.06.55h-.06a3.22,3.22,0,0,0-3.22,3.22c0,.09,0,.18,0,.27a3.51,3.51,0,0,0-2.57-.41,3.45,3.45,0,0,0-2.3,1.55,3.46,3.46,0,0,0-2.27-1.43c-1.73-.33-3.36.54-3.62,1.94a2.28,2.28,0,0,0,.34,1.64,3.2,3.2,0,0,0,.62,5.21,3.31,3.31,0,0,0-1,2.66c.11,2.91,2.3,3.45,2.55,5.07h1.16a4.48,4.48,0,0,1,1.36-2.48c1-1.1,1.24-4.2-.57-5.52A3.21,3.21,0,0,0,255,226a3.16,3.16,0,0,0-.35-1.44,2.32,2.32,0,0,0,.6-.65,3.23,3.23,0,0,0,3.28,1.06,3.15,3.15,0,0,0,2.62-2.5,3.18,3.18,0,0,0,2.1.8,3.22,3.22,0,0,0,3.22-3.22,3.31,3.31,0,0,0-.05-.55h.05a3.22,3.22,0,0,0,2.26-5.52,2.62,2.62,0,0,0,1.78-2.48,2.59,2.59,0,0,0-.84-1.91,2.12,2.12,0,0,0,1.44-1.88A2,2,0,0,0,270,206a2.61,2.61,0,0,0,.2-4.08A2.48,2.48,0,0,0,271.61,199.79Z" style="fill:#fff;opacity:0.30000000000000004"/><path d="M250.27,199.64v-2a1.87,1.87,0,0,1,0-.42.42.42,0,0,1,.76-.14c.72,1.11,2.73,2.09,5.63,1.54,6.88-1.79,9.35-8.93,9.35-8.93a5.75,5.75,0,0,0,.36-3.29,5.67,5.67,0,0,0-5.62-4.57,5.37,5.37,0,0,0-2.74.79.16.16,0,0,1-.25-.13v-2.31a1.26,1.26,0,0,0-1.56,0v2.95a4.46,4.46,0,0,0,.17,1.2c.43,1.51,1.2,5.81-3.6,6.88h0l-.23.11-.16.09a4,4,0,0,0-2,3.18l-.63.35a2.11,2.11,0,0,0-1.11,1.87v2.82A1.14,1.14,0,0,0,250.27,199.64Z" style="fill:#407BFF"/><path d="M250.27,199.64v-2a1.87,1.87,0,0,1,0-.42.42.42,0,0,1,.76-.14c.72,1.11,2.73,2.09,5.63,1.54,6.88-1.79,9.35-8.93,9.35-8.93a5.75,5.75,0,0,0,.36-3.29,5.67,5.67,0,0,0-5.62-4.57,5.37,5.37,0,0,0-2.74.79.16.16,0,0,1-.25-.13v-2.31a1.26,1.26,0,0,0-1.56,0v2.95a4.46,4.46,0,0,0,.17,1.2c.43,1.51,1.2,5.81-3.6,6.88h0l-.23.11-.16.09a4,4,0,0,0-2,3.18l-.63.35a2.11,2.11,0,0,0-1.11,1.87v2.82A1.14,1.14,0,0,0,250.27,199.64Z" style="fill:#fff;opacity:0.4"/><g style="opacity:0.30000000000000004"><path d="M264.87,188.67h-.07a.44.44,0,0,1-.37-.51,3.46,3.46,0,0,0-.09-1.51,3.62,3.62,0,0,0-1.48-2,.45.45,0,0,1-.12-.62.44.44,0,0,1,.62-.12,4.49,4.49,0,0,1,1.84,2.47,4.44,4.44,0,0,1,.11,1.89A.44.44,0,0,1,264.87,188.67Z" style="fill:#fff"/></g><g style="opacity:0.30000000000000004"><path d="M262,184.18l-.14,0a3.76,3.76,0,0,0-.72-.17.45.45,0,0,1-.38-.51.43.43,0,0,1,.5-.38,4.34,4.34,0,0,1,.88.21.44.44,0,0,1,.29.56A.46.46,0,0,1,262,184.18Z" style="fill:#fff"/></g><path d="M256.7,198.62A13.23,13.23,0,0,0,264,193.4c0-.07,1.42-2.37.2-2.77s-1.72,2.52-5.19,4.31-6.62-.67-7.56.9,1.26,2.49,1.46,2.58A7.28,7.28,0,0,0,256.7,198.62Z" style="opacity:0.1"/><path d="M257.8,180.18a1.26,1.26,0,0,0-1.56,0A1.08,1.08,0,0,0,257.8,180.18Z" style="opacity:0.2"/><path d="M251.7,143.15s-.1,2.54,0,4.17a15,15,0,0,0,1.83,6.41,16.6,16.6,0,0,0,3.06,4.11l2.59,2.55-2.36,2.32-2.59-2.55c-.28-.28-.56-.57-.83-.87a19.74,19.74,0,0,1-3.37-5.18h-.18a19.74,19.74,0,0,1-3.37,5.18c-.27.3-.55.59-.83.87L243,162.71l-2.36-2.32,2.59-2.55a16.6,16.6,0,0,0,3.06-4.11,15,15,0,0,0,1.83-6.41c.06-1.63,0-4.17,0-4.17A2.61,2.61,0,0,1,251.7,143.15Z" style="fill:#407BFF"/><g style="opacity:0.30000000000000004"><path d="M251.7,143.15s-.1,2.54,0,4.17a15,15,0,0,0,1.83,6.41,16.6,16.6,0,0,0,3.06,4.11l2.59,2.55-2.36,2.32-2.59-2.55c-.28-.28-.56-.57-.83-.87a19.74,19.74,0,0,1-3.37-5.18h-.18a19.74,19.74,0,0,1-3.37,5.18c-.27.3-.55.59-.83.87L243,162.71l-2.36-2.32,2.59-2.55a16.6,16.6,0,0,0,3.06-4.11,15,15,0,0,0,1.83-6.41c.06-1.63,0-4.17,0-4.17A2.61,2.61,0,0,1,251.7,143.15Z" style="fill:#fff"/></g><path d="M251.7,143.15a2.61,2.61,0,0,0-3.6,0S250.21,145,251.7,143.15Z" style="opacity:0.1"/><path d="M253.7,159.9c.06,0,.07,13.26.07,13.26-.13,5.51,2.88,10.44,8.44,12.1l6,1.8c1.78.53,4.09-.9,4.15-2.66v-9a41.55,41.55,0,0,0-12.46-30.16c-2.22-2.25-6.21-1-6.29,2.09l.12,7Z" style="fill:#407BFF"/><path d="M253.7,159.9c.06,0,.07,13.26.07,13.26-.13,5.51,2.88,10.44,8.44,12.1l6,1.8c1.78.53,4.09-.9,4.15-2.66v-9a41.55,41.55,0,0,0-12.46-30.16c-2.22-2.25-6.21-1-6.29,2.09l.12,7Z" style="fill:#fff;opacity:0.5"/><path d="M246.09,154.14l.12-6.85c-.07-3.08-4.06-4.34-6.28-2.09a41.55,41.55,0,0,0-12.46,30.16v9c.06,1.76,2.37,3.19,4.14,2.66l6-1.8c5.57-1.66,8.58-6.59,8.45-12.1,0,0,0-13.26.07-13.26Z" style="fill:#407BFF"/><path d="M246.09,154.14l.12-6.85c-.07-3.08-4.06-4.34-6.28-2.09a41.55,41.55,0,0,0-12.46,30.16v9c.06,1.76,2.37,3.19,4.14,2.66l6-1.8c5.57-1.66,8.58-6.59,8.45-12.1,0,0,0-13.26.07-13.26Z" style="fill:#fff;opacity:0.5"/><g style="opacity:0.2"><path d="M236.43,171.62c5.79,0,9.67-4.4,9.67-4.4,0-1.4,0-2.84,0-4.06h0s-2.77,4.83-7.69,5.7-3.89-2.8-5.18-2.8S230.65,171.62,236.43,171.62Z"/><path d="M231.61,187.06l6-1.8c5.57-1.66,8.58-6.59,8.45-12.1v-1.8h0A16.57,16.57,0,0,1,236.35,183c-8.29,3.37-8.88-5.13-8.88-5.13v6.56C227.53,186.16,229.84,187.59,231.61,187.06Z"/></g><g style="opacity:0.30000000000000004"><path d="M250.22,153.07a.52.52,0,0,1-.52-.52v-3.92a.52.52,0,0,1,.52-.52.52.52,0,0,1,.52.52v3.92A.52.52,0,0,1,250.22,153.07Z" style="fill:#fff"/></g><g style="opacity:0.30000000000000004"><path d="M250.22,147.35a.52.52,0,0,1-.52-.52v-.92a.52.52,0,0,1,.52-.51.51.51,0,0,1,.52.51v.92A.52.52,0,0,1,250.22,147.35Z" style="fill:#fff"/></g><path d="M260.53,178.9c-5.11-2.53-6.44-9.14-6.77-12.76,0,3.44,0,7,0,7-.13,5.51,2.88,10.44,8.44,12.1l6,1.8c1.78.53,4.09-.9,4.15-2.66v-9C272.39,181.61,267.73,182.47,260.53,178.9Z" style="opacity:0.1"/><g style="opacity:0.4"><path d="M267,162.9a1,1,0,0,1-1-.78,25.58,25.58,0,0,0-4.22-8.37,1,1,0,0,1,1.67-1.23A27.9,27.9,0,0,1,268,161.6a1,1,0,0,1-.75,1.27A1.09,1.09,0,0,1,267,162.9Z" style="fill:#fff"/></g><g style="opacity:0.4"><path d="M260.77,151.83a1,1,0,0,1-.78-.36c-.66-.75-1.1-1.19-1.11-1.19a1,1,0,0,1,1.45-1.48s.5.49,1.22,1.31a1,1,0,0,1-.1,1.46A1.05,1.05,0,0,1,260.77,151.83Z" style="fill:#fff"/></g><path d="M263.33,143.67s3.16,8.28-11.17,6.8l.42,1.19s15.41,2.56,13-7.93Z" style="fill:#263238"/><path d="M266.74,144.32s2.17,6.92-2.91,9.59-10.92-.42-10.92-.42v.85s5.24,4.82,11.66,2,2.92-12,2.92-12Z" style="fill:#263238"/><path d="M252.91,158.07s5.75,4.75,11.17,3.34,5.5-10.63,5.5-10.63l1.75,4.54s-1.84,7.5-7.25,7.92-11.17-3.68-11.17-3.68Z" style="fill:#263238"/><path d="M271.74,156.36s1,9.54-7.17,11.13a11.43,11.43,0,0,1-11.66-4.83v2.12a13.25,13.25,0,0,0,11.66,5c7.84-.58,8.84-9.25,8.84-9.25Z" style="fill:#263238"/><path d="M273.41,164l-.5,7.51a10,10,0,0,1-8.34,4.23c-5.74,0-11.66-5.4-11.66-5.4v-1.91a15.3,15.3,0,0,0,11.46,5.5C271.66,173.91,273.41,164,273.41,164Z" style="fill:#263238"/><path d="M273.08,173.34s-2.43,5.48-7.77,5.23c-7.15-.33-13.48-7.08-13.48-7.08v1.31l3.75,4.52s5.41,15.34,12.7,14S273.08,173.34,273.08,173.34Zm-7.68,15.4a4.79,4.79,0,0,0,4.8-1.29S268.56,192.07,265.4,188.74Zm6.13-4s-1.67,2.33-3.75,2.63c-2.38.33-4.25-1.17-6.58-3.46,0,0,4,2.41,6.54,1.66a8.93,8.93,0,0,0,4.09-2.87Zm.69-5.55s-1.73,4.43-5.39,4.43a16.5,16.5,0,0,1-7.36-2.25l-.89-2.42a18.15,18.15,0,0,0,8,2.15,6.11,6.11,0,0,0,5.64-3.82Z" style="fill:#263238"/><g style="opacity:0.5"><path d="M263.33,143.67s3.16,8.28-11.17,6.8l.42,1.19s15.41,2.56,13-7.93Z" style="fill:#fff"/><path d="M266.74,144.32s2.17,6.92-2.91,9.59-10.92-.42-10.92-.42v.85s5.24,4.82,11.66,2,2.92-12,2.92-12Z" style="fill:#fff"/><path d="M252.91,158.07s5.75,4.75,11.17,3.34,5.5-10.63,5.5-10.63l1.75,4.54s-1.84,7.5-7.25,7.92-11.17-3.68-11.17-3.68Z" style="fill:#fff"/><path d="M271.74,156.36s1,9.54-7.17,11.13a11.43,11.43,0,0,1-11.66-4.83v2.12a13.25,13.25,0,0,0,11.66,5c7.84-.58,8.84-9.25,8.84-9.25Z" style="fill:#fff"/><path d="M273.41,164l-.5,7.51a10,10,0,0,1-8.34,4.23c-5.74,0-11.66-5.4-11.66-5.4v-1.91a15.3,15.3,0,0,0,11.46,5.5C271.66,173.91,273.41,164,273.41,164Z" style="fill:#fff"/><path d="M273.08,173.34s-2.43,5.48-7.77,5.23c-7.15-.33-13.48-7.08-13.48-7.08v1.31l3.75,4.52s5.41,15.34,12.7,14S273.08,173.34,273.08,173.34Zm-7.68,15.4a4.79,4.79,0,0,0,4.8-1.29S268.56,192.07,265.4,188.74Zm6.13-4s-1.67,2.33-3.75,2.63c-2.38.33-4.25-1.17-6.58-3.46,0,0,4,2.41,6.54,1.66a8.93,8.93,0,0,0,4.09-2.87Zm.69-5.55s-1.73,4.43-5.39,4.43a16.5,16.5,0,0,1-7.36-2.25l-.89-2.42a18.15,18.15,0,0,0,8,2.15,6.11,6.11,0,0,0,5.64-3.82Z" style="fill:#fff"/></g><path d="M275.72,153.79s-7.1-4.88-.12-7.36,4.54,7.36,4.54,7.36l5,23.93s6.21,6.09,5.23,8.48-2.8,1.92-2.8,1.92-2.67,4.4-4.38,3,.49-6.77.49-6.77l-2.17-6.08Z" style="fill:#263238"/><path d="M275.72,153.79s-7.1-4.88-.12-7.36,4.54,7.36,4.54,7.36l5,23.93s6.21,6.09,5.23,8.48-2.8,1.92-2.8,1.92-2.67,4.4-4.38,3,.49-6.77.49-6.77l-2.17-6.08Z" style="fill:#fff;opacity:0.5"/><path d="M299.33,227.83s-3,1.37-.78,4.4,7.18-1.28,5.95-3.29S299.33,227.83,299.33,227.83Z" style="fill:#263238"/><path d="M299.33,227.83s-3,1.37-.78,4.4,7.18-1.28,5.95-3.29S299.33,227.83,299.33,227.83Z" style="fill:#fff;opacity:0.4"/><path d="M300.38,237.64c-.55-1.06.09-2.47,1.11-2.45a6.14,6.14,0,0,0,4.43-1.86c3-2.92,2.64,7-1.77,6.73A4.28,4.28,0,0,1,300.38,237.64Z" style="fill:#263238"/><path d="M300.06,241.39c.17-.66,1.1-1.76,2.52.19a1.89,1.89,0,0,1,2.76,0s.86-2.19,2.54-1.77c0,0,.12-2.35,1.27-1.23,1.35,1.31,1.25,4.45-.23,3.26,0,0-1.08,4.83-3.37,1.19,0,0-1.22,4-3,.25C302.51,243.28,299.09,245.14,300.06,241.39Z" style="fill:#263238"/><path d="M308.68,234.63a.56.56,0,0,1,1-.32c1,1.62,2.14,4,.38,4C309,238.28,308.74,236.22,308.68,234.63Z" style="fill:#263238"/><g style="opacity:0.5"><path d="M300.38,237.64c-.55-1.06.09-2.47,1.11-2.45a6.14,6.14,0,0,0,4.43-1.86c3-2.92,2.64,7-1.77,6.73A4.28,4.28,0,0,1,300.38,237.64Z" style="fill:#fff"/><path d="M300.06,241.39c.17-.66,1.1-1.76,2.52.19a1.89,1.89,0,0,1,2.76,0s.86-2.19,2.54-1.77c0,0,.12-2.35,1.27-1.23,1.35,1.31,1.25,4.45-.23,3.26,0,0-1.08,4.83-3.37,1.19,0,0-1.22,4-3,.25C302.51,243.28,299.09,245.14,300.06,241.39Z" style="fill:#fff"/><path d="M308.68,234.63a.56.56,0,0,1,1-.32c1,1.62,2.14,4,.38,4C309,238.28,308.74,236.22,308.68,234.63Z" style="fill:#fff"/></g><path d="M252.2,146.09l23.24-.69a1.39,1.39,0,0,0,1.34-1.59h0a1.39,1.39,0,0,0-1.48-1.2l-23.19,1.62a.93.93,0,0,0-.84,1.15h0A.93.93,0,0,0,252.2,146.09Z" style="fill:#263238"/><path d="M252.2,146.09l23.24-.69a1.39,1.39,0,0,0,1.34-1.59h0a1.39,1.39,0,0,0-1.48-1.2l-23.19,1.62a.93.93,0,0,0-.84,1.15h0A.93.93,0,0,0,252.2,146.09Z" style="fill:#fff;opacity:0.5"/><path d="M255.12,147.07c0-2.49-4.22-3.17-5.92-3.34v32c7.08.87,4.17-25.23,4.17-25.23S255.12,150.2,255.12,147.07Z" style="fill:#263238"/><path d="M255.12,147.07c0-2.49-4.22-3.17-5.92-3.34v32c7.08.87,4.17-25.23,4.17-25.23S255.12,150.2,255.12,147.07Z" style="fill:#fff;opacity:0.5"/><path d="M300.45,222.51a115.34,115.34,0,0,0-1.09-13.25c-.85-4.52-5.36-10.62-5.36-10.62l-2.31-9.35s-1.4-2-4.35,0,1.8,9.35,1.8,9.35l1.46,3.54,5,22.42c.6,5.84,6.08,4.75,7.54,1.8S300.45,222.51,300.45,222.51Zm-7.18-17.89c4.26,2.52,4.75,19,4.75,19C295.22,221.92,293.27,204.62,293.27,204.62Z" style="fill:#263238"/><path d="M300.45,222.51a115.34,115.34,0,0,0-1.09-13.25c-.85-4.52-5.36-10.62-5.36-10.62l-2.31-9.35s-1.4-2-4.35,0,1.8,9.35,1.8,9.35l1.46,3.54,5,22.42c.6,5.84,6.08,4.75,7.54,1.8S300.45,222.51,300.45,222.51Zm-7.18-17.89c4.26,2.52,4.75,19,4.75,19C295.22,221.92,293.27,204.62,293.27,204.62Z" style="fill:#fff;opacity:0.5"/><path d="M249.71,96.3v17c1.32,1.25,4,4,3.4,4.87s-2.39-.68-3.4-1.64v5.69c1.4.22,4.5.6,5.21-.12.94-.94,2.48-3.81,3.62-2.94s-1.75,1.46-1.53,4c0,0-2.15,1.24-2.4,2.06l-4.9.21v6.08a11.64,11.64,0,0,0,9.07-4.71,10.26,10.26,0,0,1,.77-4.57c1-1.89,1.19-3.24.25-3.56,0,0,2-.92,2.11-2.15h0c.08-1.24-1.64-3.43.38-5.49.07-1,.13-1.89.16-2.4C262.92,101.84,257.22,96.3,249.71,96.3Z" style="fill:#263238"/><path d="M249.71,96.3v17c1.32,1.25,4,4,3.4,4.87s-2.39-.68-3.4-1.64v5.69c1.4.22,4.5.6,5.21-.12.94-.94,2.48-3.81,3.62-2.94s-1.75,1.46-1.53,4c0,0-2.15,1.24-2.4,2.06l-4.9.21v6.08a11.64,11.64,0,0,0,9.07-4.71,10.26,10.26,0,0,1,.77-4.57c1-1.89,1.19-3.24.25-3.56,0,0,2-.92,2.11-2.15h0c.08-1.24-1.64-3.43.38-5.49.07-1,.13-1.89.16-2.4C262.92,101.84,257.22,96.3,249.71,96.3Z" style="fill:#fff;opacity:0.6000000000000001"/><path d="M249,108.08s7,.72,7.66-1.38a2.77,2.77,0,0,0,2.88-3.09c-.11-3.19-5.08-6-10.54-6.28Z" style="fill:#407BFF"/><path d="M249,108.08s7,.72,7.66-1.38a2.77,2.77,0,0,0,2.88-3.09c-.11-3.19-5.08-6-10.54-6.28Z" style="fill:#fff;opacity:0.5"/><g style="opacity:0.2"><path d="M250.1,106.06a.21.21,0,1,0,.2.37,1.58,1.58,0,0,1,1.44,0,.19.19,0,0,0,.1,0,.21.21,0,0,0,.19-.11.2.2,0,0,0-.09-.29A2,2,0,0,0,250.1,106.06Z"/><path d="M254,103.62a.25.25,0,0,0-.31.18c-.17.67-.92.58-1.12.54-.82-.78-2.35-.18-2.42-.15a.25.25,0,0,0-.13.33.24.24,0,0,0,.32.13s1.38-.55,1.94.09c1,1.09,1.17,1.86.66,2.42a.24.24,0,0,0,0,.35.23.23,0,0,0,.17.07.27.27,0,0,0,.19-.08c.82-.91.21-2-.3-2.65a1.21,1.21,0,0,0,1.17-.93A.25.25,0,0,0,254,103.62Z"/><path d="M257.58,103.43a1.31,1.31,0,0,0-.69.06,2.64,2.64,0,0,1,.18-2.23.23.23,0,0,0-.06-.34.25.25,0,0,0-.35,0,3.18,3.18,0,0,0-.2,2.8,2.1,2.1,0,0,0-.46,1,4.57,4.57,0,0,0-1.48-.22.25.25,0,0,0-.24.26.25.25,0,0,0,.26.24c.38,0,1.45,0,1.77.51a.7.7,0,0,1,0,.68.25.25,0,0,0,.14.33h.09a.24.24,0,0,0,.23-.16,1.16,1.16,0,0,0-.07-1.15,1.18,1.18,0,0,0-.25-.25,1.48,1.48,0,0,1,.43-1,.7.7,0,0,1,.58-.11.26.26,0,0,0,.3-.19A.27.27,0,0,0,257.58,103.43Z"/><path d="M254.85,101.67a1.22,1.22,0,0,0,.42-.89.24.24,0,0,0-.24-.26.23.23,0,0,0-.26.23.71.71,0,0,1-.25.54,2,2,0,0,1-1.28.29,7,7,0,0,0-2.35-.31.25.25,0,0,0-.25.25.26.26,0,0,0,.26.25c.7,0,2.78.1,2.9.91a.25.25,0,0,0,.25.21h0a.26.26,0,0,0,.21-.29,1.13,1.13,0,0,0-.3-.57A1.77,1.77,0,0,0,254.85,101.67Z"/><path d="M252.47,100.89a.25.25,0,0,0,.16-.06.25.25,0,0,0,0-.35.83.83,0,0,1-.25-.77c.14-.45.84-.75,1.1-.83a.25.25,0,1,0-.15-.48s-1.18.36-1.43,1.16a1.29,1.29,0,0,0,.34,1.23A.23.23,0,0,0,252.47,100.89Z"/></g><path d="M253.11,112.7s1.12,2.82,3.9,2.75,1.31-6.18-.92-6S253.11,112.7,253.11,112.7Z" style="opacity:0.4"/><path d="M244.17,126.35s1,8.5-1.46,12.22l-18.78,4.34s-8.84,2.91-10,22c-.35,5.63-6.34,21.66-6.34,21.66s-4.48,3.42-9,24.3c-1.13,5.19-2.26,11.46-3.32,19,0,0-6.21,4.87-7.33,7.66-.78,1.93-1.38,5.77,0,7.34,2.16,2.45,8.34,3.57,11,1.66,3.1-2.23,3.41-13.83,3.41-13.83s15.92-31.83,17.92-39.83c1.35-5.39,4.2-15.59,5.92-21.69l3.64,45.7a4.43,4.43,0,0,1-.41,2.21c-1.57,3.41-5.94,18.64-1.82,78.69a137.84,137.84,0,0,1-.62,16.5c-.69,7.74-2.38,16.5-1.38,31s6.5,48.92,6.5,48.92-9.91,12.33-9.08,18.83,12.58,5.25,14.33,1.5,4.25-19,4.25-19,5.75-53.5,1.75-76c-.87-4.93.86-15,1.5-20,1.27-9.69,5.09-27.25,5.09-38.75v-134Z" style="fill:#407BFF"/><g style="opacity:0.7000000000000001"><path d="M249.93,244.79v-9.87a13.38,13.38,0,0,1-3.67-3.35c-3.67-4.33-6.08-20.25-6.54-23.25s-.13-3.83,4.12-3.75a16.59,16.59,0,0,1,6.09,1.23v-3a34,34,0,0,1-9.34,0c-2.16-.41-1.33-4.33-1.5-6.5s2.42-2.5,5.42-2.75a29.46,29.46,0,0,1,5.42.15v-2.09c-1.89.46-6.65.54-8.67,1-2.42.58-2.58-4.5.75-7.5a16.35,16.35,0,0,1,7.92-3.4v-2.54c-1.77.95-6.26,3.36-8.5,4.69-2.84,1.66-2.34-1.34-2.5-5.17a15.09,15.09,0,0,1,1.08-6.5,20,20,0,0,1-5-.75c1.83,1.42,2.17,9.33,1.83,21.42s2.75,21.83-.75,23.75c-2.56,1.4-5.31-1.9-6.59-3.76l.26,3.18c2.84,2,11,8.41,13.08,16.83C244.7,240.26,248.13,243.53,249.93,244.79Z" style="fill:#fff"/><path d="M249.93,142.84c-1.6-.5-4.73-1.22-7-.14s-6.59-.9-8.93-2.13l-2.43.56c1.55,1.31,5,3.79,9,4.07,5.5.37,6.25,0,7.25,7.5s-1.25,4.75-.87,9.75c.24,3.25,1.86,7.28,3,9.71Z" style="fill:#fff"/><path d="M220.74,191c-2.77.13-6.4-7.83-6.4-7.83-1.1,5.72,2.83,10.55,5,12.69.43-1.19.77-2.2,1-3C220.4,192.33,220.57,191.7,220.74,191Z" style="fill:#fff"/><path d="M196,225.2c-.24,1.51-.47,3.07-.7,4.71a5.73,5.73,0,0,0,3.25,2.83,7.06,7.06,0,0,0,3.83,0s.94-1.87,2.37-4.8A10.78,10.78,0,0,0,196,225.2Z" style="fill:#fff"/><path d="M201.75,239.12c-1.59-1.71-.53,2.75-2.07,2.54s-.34-5.34-.92-5.5-1.33,5.66-2.67,5.5,1.17-5.75.67-6-2.67,5.66-3.67,5.16,1.84-5.75,1.34-6-4.09,5.92-5.5,5.42c-.9-.32-.59-2.44-.25-4a6.63,6.63,0,0,0-.75,1.29c-.78,1.93-1.38,5.77,0,7.34,2.16,2.45,8.34,3.57,11,1.66,1.5-1.08,2.35-4.36,2.82-7.45Z" style="fill:#fff"/><path d="M244.73,300.46c-11.43,14.75-9.89-12.39-9.89-12.39-1.5,4-5.34-2.25-5.34-2.25s2.84,8.75,1.59,13.25c-.65,2.35-2.18.75-3.5-1.31v.06a124.24,124.24,0,0,1-.43,14.21c3.6,8.89,6.86,42.54,8.62,58.79,1.11,10.35-1.64,15.27-4.59,17.62.55,3.56.9,5.8.9,5.8,6.09-3.42,8.29.09,9,4,.29-1.64.46-2.71.46-2.71s.62-5.76,1.31-14.29c-2.26-13.61-6.07-37.14-6.68-45-.62-8,4.41-13.12,7.35-15.38-.07-.47-.15-.93-.23-1.37a26.35,26.35,0,0,1-.18-5.42c-1.19,2.81-2.59,5.34-3.19,3.42-.73-2.34,1.94-7.61,3.92-11C244.18,304.27,244.49,302.15,244.73,300.46Z" style="fill:#fff"/></g><g style="opacity:0.30000000000000004"><path d="M244.73,279.47a.38.38,0,0,1-.36-.23c-9.29-19.33-13.12-49.82-13.16-50.12a.4.4,0,1,1,.8-.1c0,.3,3.84,30.66,13.08,49.88a.4.4,0,0,1-.19.53A.38.38,0,0,1,244.73,279.47Z"/><path d="M246.26,272.41a.4.4,0,0,1-.39-.34,336.88,336.88,0,0,0-11.16-47.87.42.42,0,0,1,.26-.51.39.39,0,0,1,.5.26,338.13,338.13,0,0,1,11.19,48,.4.4,0,0,1-.34.45Z"/><path d="M230.43,282.31a.41.41,0,0,1-.4-.36c-1.49-13.72,1.16-34.06,1.18-34.26a.42.42,0,0,1,.45-.35.4.4,0,0,1,.35.45c0,.2-2.66,20.45-1.18,34.07a.4.4,0,0,1-.36.44Z"/><path d="M234.94,283.31l-.1,0a.39.39,0,0,1-.28-.49l3.22-11.67a.4.4,0,1,1,.77.22L235.33,283A.41.41,0,0,1,234.94,283.31Z"/><path d="M232.43,362.19a1.57,1.57,0,0,1-.9-.3c-3.82-2.72-4.44-25.85-4.5-28.48a.39.39,0,0,1,.39-.4c.2-.06.4.17.41.39.16,7,1.21,25.73,4.17,27.84a.69.69,0,0,0,.64.12.4.4,0,0,1,.24.76A1.41,1.41,0,0,1,232.43,362.19Z"/><path d="M231.59,416.47a.39.39,0,0,1-.39-.36c-.33-3.6,1.06-6.36,2.41-9a23.34,23.34,0,0,0,1.95-4.61c1.12-4.28,0-6.7,0-6.73a.4.4,0,0,1,.19-.53.39.39,0,0,1,.53.19c0,.11,1.23,2.69,0,7.27a24.52,24.52,0,0,1-2,4.77c-1.3,2.57-2.64,5.22-2.34,8.6a.39.39,0,0,1-.36.43Z"/><path d="M228.26,416.47a.4.4,0,0,1-.39-.32,9.34,9.34,0,0,1,1.91-7,.4.4,0,0,1,.55-.08.4.4,0,0,1,.08.57,8.68,8.68,0,0,0-1.76,6.34.39.39,0,0,1-.31.47Z"/><path d="M240.64,172.8a14.11,14.11,0,0,1-9.21-2.94c-5.72-4.69-5.42-13.15-5.4-13.51a.41.41,0,0,1,.41-.38.39.39,0,0,1,.39.41c0,.09-.3,8.44,5.11,12.86,3.53,2.89,8.7,3.51,15.36,1.86a.4.4,0,0,1,.48.29.4.4,0,0,1-.29.49A28.91,28.91,0,0,1,240.64,172.8Z"/><path d="M235.76,182a.49.49,0,0,1-.2-.05c-6.33-3.63-7.32-7.92-7.36-8.1a.4.4,0,0,1,.79-.17s1,4.14,7,7.58a.39.39,0,0,1,.15.54A.41.41,0,0,1,235.76,182Z"/><path d="M235.09,189.94l-.13,0c-4.54-1.58-6.64-6.36-6.73-6.57A.4.4,0,1,1,229,183s2.06,4.66,6.27,6.12a.4.4,0,0,1,.24.51A.39.39,0,0,1,235.09,189.94Z"/><path d="M235.09,199.47a.4.4,0,0,1-.15,0,9.65,9.65,0,0,1-5.83-6.46.41.41,0,0,1,.31-.47.42.42,0,0,1,.48.31,9,9,0,0,0,5.35,5.88.4.4,0,0,1,.21.53A.39.39,0,0,1,235.09,199.47Z"/><path d="M235.09,211.47a.41.41,0,0,1-.3-.14,38.82,38.82,0,0,1-5.4-8.6.41.41,0,0,1,.22-.53.4.4,0,0,1,.52.22,37.48,37.48,0,0,0,5.27,8.39.41.41,0,0,1-.05.57A.39.39,0,0,1,235.09,211.47Z"/><path d="M215.93,164.78a.4.4,0,0,1-.4-.35.41.41,0,0,1,.35-.45c.06,0,5.62-.75,8.33-9.36a.4.4,0,0,1,.77.24c-2.88,9.14-8.76,9.89-9,9.92Z"/><path d="M227.09,150.47H227a.4.4,0,0,1-.3-.48c0-.17,1-4.3,6.26-6.28a.39.39,0,0,1,.51.23.4.4,0,0,1-.23.52,9,9,0,0,0-5.76,5.71A.39.39,0,0,1,227.09,150.47Z"/><path d="M200,223.14l-.13,0a.4.4,0,0,1-.25-.51c0-.08,2.64-8.11,5.94-17.67a66.7,66.7,0,0,0,3.65-16.22.4.4,0,0,1,.41-.38.39.39,0,0,1,.38.42,66.4,66.4,0,0,1-3.68,16.44c-3.3,9.56-5.92,17.58-5.94,17.66A.41.41,0,0,1,200,223.14Z"/><path d="M203.6,224.47h-.07a.41.41,0,0,1-.33-.47,34.08,34.08,0,0,1,6.08-13.17c4.7-6.16,5.41-14.79,5.42-14.87a.4.4,0,1,1,.79.06c0,.36-.73,8.94-5.58,15.29A33.21,33.21,0,0,0,204,224.14.4.4,0,0,1,203.6,224.47Z"/><path d="M214.15,181.14h0a.41.41,0,0,1-.38-.43c0-.48.85-11.76,6.24-16.63a.42.42,0,0,1,.57,0,.41.41,0,0,1,0,.57c-5.15,4.65-6,16-6,16.09A.4.4,0,0,1,214.15,181.14Z"/></g><path d="M237.92,114.87l-.16-.27s-1.66-.8-2.83,1.28c-1.44,2.55.75,8.36,4.19,7.05l0,0A48.69,48.69,0,0,1,237.92,114.87Z" style="fill:#407BFF"/><path d="M249.71,96.3h0c-7.52,0-13.22,5.54-12.75,12.38.13,1.88.6,8.62.73,10.5.47,6.84,5.85,12.38,12,12.38h0Z" style="fill:#407BFF"/><path d="M249.71,96.3h0c-7.52,0-13.22,5.54-12.75,12.38.13,1.88.6,8.62.73,10.5.47,6.84,5.85,12.38,12,12.38h0Z" style="opacity:0.2"/><path d="M237.13,105.86c.62-.44,1.39-.65,1.67.82.5,2.59-.67,4.34-.42,7.25s.89,5.09,2.2,4.75-1.11-3.83-.11-8.75.47-5.65-.75-6.66c-.7-.58.35-2.48,1.38-4A11.21,11.21,0,0,0,237.13,105.86Z" style="fill:#fff;opacity:0.5"/><path d="M244.82,113.85a5.06,5.06,0,0,1-3.51-1.64.4.4,0,0,1,0-.56.42.42,0,0,1,.57,0,3.79,3.79,0,0,0,5.33.44.4.4,0,0,1,.48.64A4.75,4.75,0,0,1,244.82,113.85Z" style="fill:#407BFF"/><path d="M249.71,123.35h-3a.4.4,0,1,1,0-.8h3a.4.4,0,1,1,0,.8Z" style="fill:#407BFF"/><g style="opacity:0.5"><path d="M244.82,113.85a5.06,5.06,0,0,1-3.51-1.64.4.4,0,0,1,0-.56.42.42,0,0,1,.57,0,3.79,3.79,0,0,0,5.33.44.4.4,0,0,1,.48.64A4.75,4.75,0,0,1,244.82,113.85Z"/><path d="M249.71,123.35h-3a.4.4,0,1,1,0-.8h3a.4.4,0,1,1,0,.8Z"/></g><g style="opacity:0.2"><path d="M249,111.33a.25.25,0,0,1-.23-.15l-.91-2c-4.71-1.38-6,1.27-6,1.3a.26.26,0,0,1-.33.12.25.25,0,0,1-.12-.34c.06-.12,1.53-3.1,6.73-1.53l.11,0,1,2.19a.25.25,0,0,1-.12.34Z"/><path d="M241.61,107.83a.28.28,0,0,1-.17-.07.26.26,0,0,1,0-.36c.06-.06,1.56-1.57,5.33-1.2a.26.26,0,0,1,.23.28.25.25,0,0,1-.28.22c-3.5-.36-4.9,1-4.92,1A.25.25,0,0,1,241.61,107.83Z"/><path d="M243.7,116.12a5.49,5.49,0,0,1-2.2-.44.26.26,0,0,1-.11-.34.25.25,0,0,1,.33-.11,5.09,5.09,0,0,0,5.6-1.09.25.25,0,0,1,.35,0,.24.24,0,0,1,0,.35A5.77,5.77,0,0,1,243.7,116.12Z"/><path d="M247.91,119.45a.24.24,0,0,1-.12,0,1.75,1.75,0,0,1-.92-1.25c-.23-1.31,1-2.87,1.26-3.18l.24-1.11a.24.24,0,0,1,.29-.19.25.25,0,0,1,.2.29l-.31,1.29s-1.39,1.62-1.19,2.82a1.27,1.27,0,0,0,.67.9.26.26,0,0,1,.1.34A.25.25,0,0,1,247.91,119.45Z"/><path d="M246.1,129.32a2.1,2.1,0,0,1-.48-.06c-2.06-.49-2.05-3.86-2-4.7a6.67,6.67,0,0,1-3.67-4.23.25.25,0,1,1,.49-.13,6.22,6.22,0,0,0,3.53,4l.18.06,0,.19s-.27,3.92,1.62,4.36a1.1,1.1,0,0,0,.86-.08,2.66,2.66,0,0,0,.75-1.7c.11-.55.19-.95.51-1a.25.25,0,0,1,.3.18.26.26,0,0,1-.18.31s-.09.39-.14.64a3.05,3.05,0,0,1-1,2A1.38,1.38,0,0,1,246.1,129.32Z"/><path d="M245.31,104.33a.28.28,0,0,1-.13,0,.26.26,0,0,1-.08-.35c1.21-1.89-1.1-4.8-1.12-4.83a.25.25,0,1,1,.39-.31c.1.13,2.55,3.22,1.15,5.41A.25.25,0,0,1,245.31,104.33Z"/><path d="M248.61,101.52l-.08,0c-1.8-.6-2.39-3.32-2.41-3.43a.25.25,0,1,1,.49-.11s.55,2.56,2.08,3.07a.25.25,0,0,1,.16.31A.26.26,0,0,1,248.61,101.52Z"/><path d="M247.09,104.83a.25.25,0,0,1-.24-.2c0-.06-.33-1.51.5-2.07a.79.79,0,0,1,.72-.13c.51.17.75.87.78.94a.25.25,0,0,1-.16.32.25.25,0,0,1-.31-.16c0-.14-.23-.55-.47-.63a.32.32,0,0,0-.28.07c-.54.37-.3,1.54-.3,1.55a.25.25,0,0,1-.19.3Z"/></g></g></svg>